<?xml version="1.0" standalone="no"?>
<!DOCTYPE svg PUBLIC "-//W3C//DTD SVG 20010904//EN"
 "http://www.w3.org/TR/2001/REC-SVG-20010904/DTD/svg10.dtd">
<svg version="1.0" xmlns="http://www.w3.org/2000/svg"
 width="300.000000pt" height="300.000000pt" viewBox="0 0 300.000000 300.000000"
 preserveAspectRatio="xMidYMid meet">
<metadata>
Created by potrace 1.11, written by Peter Selinger 2001-2013
</metadata>
<g transform="translate(0.000000,300.000000) scale(0.100000,-0.100000)"
fill="#000000" stroke="none">
<path d="M0 1500 l0 -1500 1500 0 1500 0 0 1500 0 1500 -1500 0 -1500 0 0
-1500z m1570 1220 c29 -29 25 -65 -9 -91 -18 -13 -31 -33 -34 -54 -5 -28 0
-40 26 -68 20 -21 39 -57 50 -95 20 -71 21 -94 6 -109 -16 -16 -3 -49 14 -35
10 9 106 17 160 13 18 -1 24 -26 7 -36 -5 -3 -44 -14 -86 -25 -43 -11 -85 -26
-93 -34 -9 -8 -25 -16 -35 -17 -23 -5 -34 -29 -14 -29 8 0 38 12 66 26 35 17
61 24 77 20 14 -4 25 -2 25 4 0 26 105 1 144 -35 32 -30 46 -64 46 -114 0 -35
-17 -101 -26 -101 -2 0 -20 11 -40 25 -21 15 -51 25 -71 25 -26 0 -36 5 -43
23 -7 17 -9 18 -9 4 -1 -10 -21 -37 -45 -60 -43 -40 -66 -75 -108 -160 -21
-42 -18 -67 7 -67 19 0 19 -9 0 -34 -8 -11 -15 -35 -15 -53 0 -26 4 -33 19
-33 11 0 23 -4 26 -10 3 -5 14 -10 23 -10 9 0 31 -11 47 -24 26 -22 29 -27 18
-45 -15 -24 -17 -41 -4 -41 5 0 11 9 14 20 8 30 20 25 50 -22 21 -33 24 -44
15 -56 -10 -12 -5 -22 32 -56 66 -60 72 -80 74 -242 1 -120 4 -143 19 -158 9
-10 24 -31 33 -47 16 -33 34 -30 34 4 1 31 33 98 58 121 30 26 91 17 141 -23
44 -35 61 -85 37 -109 -14 -15 -19 -14 -66 13 -36 21 -74 18 -97 -8 -36 -39
-44 -64 -37 -118 6 -45 5 -51 -10 -48 -10 2 -25 18 -34 34 -9 17 -20 31 -24
33 -5 2 -8 10 -8 18 0 8 -4 14 -9 14 -5 0 -12 8 -15 18 -4 10 -22 44 -40 75
-29 48 -34 65 -31 102 3 24 0 47 -5 50 -6 3 -10 -3 -10 -14 0 -11 -4 -22 -9
-25 -10 -6 -41 53 -41 77 0 9 -5 19 -10 22 -7 4 -7 13 0 26 10 17 7 19 -20 19
-35 0 -37 7 -10 53 22 37 17 75 -18 124 -10 16 -22 36 -25 46 -4 9 -11 17 -17
17 -5 0 -10 7 -10 15 0 8 -5 15 -11 15 -6 0 -24 14 -40 31 -30 32 -49 31 -49
-2 0 -20 -15 -26 -25 -9 -8 13 -95 13 -95 0 0 -25 -19 -7 -22 21 l-3 30 -55
-53 c-30 -29 -73 -82 -94 -118 l-38 -65 21 -40 c26 -49 26 -55 1 -55 -15 0
-20 -7 -20 -29 0 -31 -40 -131 -52 -131 -5 0 -8 15 -9 33 l-1 32 -9 -29 c-5
-19 -5 -34 2 -42 12 -14 4 -35 -38 -101 -18 -29 -33 -54 -33 -57 0 -9 -72
-110 -88 -123 -22 -18 -33 -6 -22 23 6 16 6 42 -1 74 -9 44 -16 53 -49 70 -42
21 -74 17 -99 -14 -18 -21 -51 -21 -52 2 -3 47 5 79 24 100 12 12 27 20 34 18
7 -3 15 -1 17 3 7 11 70 21 93 15 27 -7 63 -69 63 -107 0 -19 3 -37 7 -40 9
-9 53 33 53 50 0 7 4 13 8 13 14 0 32 156 22 192 -23 77 -7 120 100 277 l54
81 23 -27 c19 -24 24 -26 32 -13 8 11 5 17 -8 22 -51 18 -10 73 65 85 52 9 64
41 35 93 l-22 40 25 10 26 9 -20 45 c-32 76 -86 152 -124 176 -20 12 -43 36
-51 54 -13 30 -13 30 -14 6 -1 -22 -8 -27 -52 -37 -30 -8 -58 -21 -66 -33 -19
-26 -28 -20 -46 34 -13 38 -13 51 -2 89 7 25 19 54 27 66 15 26 86 61 120 61
45 0 141 -28 169 -49 43 -32 82 -26 42 6 -34 26 -170 79 -180 69 -10 -9 -63
24 -63 39 0 13 14 15 73 13 39 -1 82 -6 95 -12 30 -13 48 10 28 34 -14 15 -11
80 4 80 4 0 10 12 13 28 12 66 32 112 49 112 3 0 14 7 22 16 25 25 19 63 -14
94 -36 34 -38 53 -5 85 32 33 105 35 135 5z m-430 -463 c0 -16 -12 -28 -45
-46 -51 -27 -99 -82 -117 -133 l-12 -33 -7 45 c-4 25 -3 49 2 55 5 5 9 17 9
27 0 10 5 18 10 18 6 0 10 6 10 14 0 8 9 18 20 21 11 3 20 11 20 16 0 5 9 9
20 9 10 0 25 7 32 15 7 8 23 14 36 15 16 0 22 -6 22 -23z m717 11 c15 -6 30
-12 33 -12 3 -1 20 -10 38 -21 48 -28 71 -79 65 -138 -5 -43 -23 -58 -23 -18
0 23 -100 128 -134 141 -19 7 -26 17 -26 35 0 28 7 30 47 13z m170 -255 c-3
-16 -11 -41 -17 -58 -9 -23 -13 -26 -20 -15 -5 8 -7 24 -4 35 16 59 52 92 41
38z m-1057 -2 c5 -11 10 -34 10 -52 0 -29 -2 -31 -14 -19 -19 19 -32 90 -17
90 5 0 15 -9 21 -19z m-79 -50 c-30 -55 9 -130 98 -187 66 -42 138 -124 144
-163 2 -11 6 -24 10 -27 4 -4 7 -20 7 -35 0 -15 5 -31 10 -34 6 -3 10 -18 10
-33 l-1 -27 -24 30 c-13 17 -31 38 -40 48 -8 9 -15 22 -15 27 0 6 -4 10 -9 10
-5 0 -13 9 -16 21 -21 65 -120 93 -193 55 -35 -18 -39 -26 -48 -106 -6 -57 -5
-62 15 -67 57 -15 -2 -64 -73 -62 -68 3 -136 61 -136 117 0 21 -29 52 -49 52
-9 0 -25 -14 -35 -31 -36 -60 -3 -183 66 -245 42 -40 108 -55 179 -42 79 14
102 36 94 92 -4 26 -1 46 10 62 19 29 25 30 53 4 16 -15 22 -32 22 -63 0 -31
5 -45 20 -54 17 -11 18 -17 8 -45 -29 -84 -87 -144 -169 -174 -51 -19 -205
-22 -222 -5 -6 6 -18 11 -27 11 -9 0 -25 9 -35 20 -10 11 -23 20 -29 20 -37 0
-161 238 -141 270 3 5 1 11 -5 15 -17 10 -12 55 6 55 13 0 15 6 8 28 -9 33 -7
94 5 124 9 22 55 82 76 99 91 75 132 95 222 108 57 8 88 9 108 1 34 -13 40 -8
25 20 -9 17 -9 34 1 73 13 58 24 76 54 87 24 9 33 -17 16 -49z m1216 32 c30
-44 41 -77 36 -105 -7 -34 5 -40 95 -43 46 -1 78 -7 80 -14 2 -6 8 -8 14 -5
12 7 88 -25 88 -38 0 -4 6 -8 14 -8 24 0 103 -85 126 -136 18 -38 20 -52 11
-66 -6 -10 -11 -37 -11 -60 0 -37 1 -40 13 -23 13 17 14 17 20 -4 3 -11 -1
-47 -9 -79 -7 -31 -13 -72 -14 -90 0 -53 -46 -137 -98 -182 -41 -35 -69 -48
-142 -67 -8 -2 -46 -5 -85 -5 -54 -1 -81 4 -119 22 -68 33 -121 86 -137 138
-11 38 -10 47 4 72 11 18 15 39 11 58 -5 23 -1 33 17 46 13 9 19 16 14 16 -6
0 -2 5 8 11 28 16 41 -4 38 -56 -5 -87 65 -136 165 -115 27 6 56 12 64 13 24
3 77 47 91 76 8 14 19 31 26 36 24 20 18 159 -9 191 -16 21 -47 3 -59 -35 -18
-53 -49 -90 -93 -112 -64 -31 -138 -21 -151 21 -8 25 -4 31 24 33 25 2 25 1 5
83 -12 45 -24 70 -40 80 -27 19 -81 26 -89 13 -4 -5 -19 -9 -34 -9 -26 0 -81
-39 -81 -57 0 -4 -10 -20 -23 -35 -12 -15 -33 -43 -47 -62 -14 -20 -28 -36
-33 -36 -9 0 2 51 14 64 5 6 9 17 9 26 0 29 59 139 80 150 11 6 20 16 20 23 1
7 28 30 61 51 82 54 113 95 105 141 -3 19 -9 51 -12 70 -8 43 7 46 33 8z
m-1087 -75 c0 -12 3 -18 6 -15 4 4 22 -7 41 -23 54 -48 129 -38 147 18 9 26
21 29 30 6 4 -9 -3 -32 -14 -52 -21 -35 -21 -35 -1 -49 17 -11 19 -18 11 -39
-13 -32 -13 -31 7 -38 9 -4 20 -1 25 6 4 8 8 -5 8 -33 0 -78 -52 -120 -111
-89 -30 16 -24 40 10 40 66 0 73 28 21 85 -15 17 -31 39 -35 50 -7 18 -9 18
-12 3 -3 -10 -13 -18 -24 -18 -29 0 -95 36 -113 62 -18 25 -22 108 -6 108 6 0
10 -10 10 -22z m940 -17 c0 -52 -29 -83 -100 -110 -30 -12 -56 -21 -57 -21 -1
0 -4 8 -6 18 -4 13 -5 12 -6 -5 0 -12 -10 -24 -20 -28 -25 -8 -48 -72 -32 -88
6 -6 23 -11 38 -12 36 0 40 -20 9 -40 -49 -32 -103 13 -109 90 -2 26 1 30 22
27 21 -3 23 -1 18 25 -4 22 -1 32 14 41 23 14 24 26 5 44 -7 8 -17 24 -20 36
-11 33 13 28 54 -11 30 -29 41 -33 73 -29 24 3 44 13 56 28 10 13 24 24 30 24
6 0 11 11 11 25 0 14 5 25 10 25 6 0 10 -18 10 -39z m-372 -516 c7 -48 26
-106 38 -116 11 -9 10 -16 -3 -44 -14 -29 -14 -40 -3 -80 7 -25 22 -52 32 -60
14 -9 18 -20 13 -34 -9 -29 -54 -81 -79 -92 -12 -5 -28 -13 -36 -18 -52 -30
-70 -34 -109 -23 -21 7 -42 19 -45 27 -3 8 -11 15 -19 15 -17 0 -73 59 -81 86
-4 13 1 30 14 47 48 60 56 110 24 147 -11 13 -9 21 13 49 14 18 27 48 29 67 4
48 12 57 45 50 15 -3 30 -2 33 2 2 4 33 5 67 2 54 -4 64 -8 67 -25z m-318
-415 c43 -62 108 -111 152 -117 49 -7 121 -3 133 6 5 4 30 14 55 21 32 9 53
23 70 47 14 19 35 46 46 61 l21 26 13 -25 c15 -27 18 -108 6 -156 -7 -27 -4
-36 18 -58 50 -50 71 -125 48 -173 -32 -64 -43 -79 -73 -94 -82 -43 -179 0
-179 79 0 28 29 63 52 63 17 0 19 -4 14 -27 -10 -39 20 -56 48 -27 21 21 20
57 -2 77 -15 14 -27 15 -65 8 -26 -4 -54 -15 -63 -22 -26 -21 -54 -89 -54
-131 l0 -38 45 0 c25 0 45 -2 45 -5 0 -6 -67 -113 -95 -153 l-17 -23 -33 38
c-34 38 -85 126 -85 145 0 7 17 8 46 3 l45 -6 -7 48 c-9 63 -17 83 -47 115
-49 53 -148 44 -155 -14 -2 -19 3 -30 18 -38 31 -17 51 -5 48 27 -2 20 2 28
16 31 27 6 46 -24 46 -69 0 -44 -31 -75 -87 -85 -32 -6 -45 -3 -103 26 -8 4
-25 22 -37 40 -43 63 -22 178 42 228 14 11 21 23 16 26 -14 9 -34 104 -25 124
4 9 8 19 9 22 17 64 30 63 75 0z"/>
</g>
</svg>
