<?xml version="1.0" encoding="utf-8"?>
<!-- Generator: Adobe Illustrator 18.0.0, SVG Export Plug-In . SVG Version: 6.00 Build 0)  -->
<!DOCTYPE svg PUBLIC "-//W3C//DTD SVG 1.1//EN" "http://www.w3.org/Graphics/SVG/1.1/DTD/svg11.dtd">
<svg version="1.1" id="Josh_Anderson_layer" xmlns="http://www.w3.org/2000/svg" xmlns:xlink="http://www.w3.org/1999/xlink"
	 x="0px" y="0px" viewBox="0 0 470.7 81.5" enable-background="new 0 0 470.7 81.5" xml:space="preserve">
<rect y="0" fill="#F19953" width="81.5" height="81.5"/>
<g>
	<g>
		<path fill="#FFFFFF" d="M41.2,12.6c0.5,0.1,0.6,0.3,1,0.5c0.2,0.7,0.7,0.9,0.9,1.4c0,0.2,0,0.3,0,0.5c0.4,1,0.9,2.3,1,3.6
			c-0.2,0.1-0.4,0.1-0.6,0.2c0,0.6,0,1.1,0.3,1.4c0.5-0.8,3-0.8,3.7-0.5c0-0.1,0-0.2,0-0.3c0.5,0.1,1,0.1,1.5,0.2c0,0.2,0,0.3,0,0.5
			c-0.3,0.2-0.3,0.3-0.4,0.6c-0.5,0-1,0.1-1.3,0.2c-0.1,0,0-0.2-0.3-0.2L46.6,21c-0.3,0.1-0.7,0.1-1,0.2l-0.4,0.3
			c-0.1-0.1-0.3-0.1-0.4-0.2c0,0.1,0,0.2,0,0.3c-0.3,0.1-0.6,0.1-0.9,0.2c-0.1,0.2-0.2,0.3-0.3,0.5c-0.3,0.2-0.9,0.2-1.2,0.3
			c-0.2,0.3-0.3,0.3-0.4,0.8c0.1,0,0.1,0,0.1,0c0.2,0.2,0.1,0.1,0.4,0.2c0.3-0.4,0.8-0.5,1.5-0.5c0-0.1,0-0.2,0-0.3
			c0.2-0.1,0.4-0.1,0.6-0.2c0-0.1,0-0.1,0-0.2c0.2-0.2,0.1,0.3,0.1,0.3c0.1,0,0.2,0,0.3,0c0-0.2,0-0.3,0-0.5c0.7,0,0.9-0.2,1.3-0.3
			c0,0.1,0,0.1,0,0.2c0.2,0.1,0.4,0.1,0.7,0.2c0.1-0.2,0.1-0.3,0.1-0.5c1.2,0,3.7,0.2,4,1.6c0.5,0.1,0.6,0.2,0.7,0.6
			c0.3,0.3,0.1,0.5,0.3,1.1c0.4,1.7-0.2,2.7-0.7,3.8c-0.2-0.2-0.1,0-0.1-0.3c-0.4-0.1-0.5-0.2-0.6-0.6c-0.7-0.1-0.9-0.4-1.3-0.6
			c-0.7-0.3-1.2,0-1.9,0c-0.1-0.5,0-0.8-0.1-1.3c-0.3,0.1-0.1,0-0.3,0.2c-0.3,0.3-0.2,1.1-0.4,1.4c-0.2,0.2-0.3,0.1-0.6,0.3
			c-0.3,0.2-1.3,1.2-1.5,1.4c0,0.1,0,0.2,0,0.3c-0.2,0.1-0.3,0.2-0.4,0.3c-0.1,0.2-0.2,0.6-0.3,0.8c-0.1,0.1-0.2,0.1-0.3,0.2
			c-0.1,0.2-0.1,0.4-0.1,0.6c-0.1,0.2-0.6,0.5-0.7,0.8c0,0.2,0,0.4,0,0.6c0,0-0.3,0.3-0.3,0.3c-0.1,0.3-0.2,0.6-0.3,0.9
			c0.4,0.2,0.9,0.3,1.3,0.5c-0.1,0.5-0.3,0.3-0.4,0.6c-0.5,0.8-0.6,1.4-0.4,2.5c0.2,0.1,0.7,0,1,0.2l0.3,0.3c0.2,0,0.5,0,0.7,0
			c0.2,0.1,0.7,0.5,0.9,0.6c0.1,0,0.2,0,0.3,0c0.3,0.3,0.5,0.6,0.7,0.9c-0.2,0.5-1,1-0.9,1.3c0.1,0,0.1,0,0.1,0
			c0.2,0.2,0.5,0.2,0.7,0.3c0-0.1,0-0.1,0-0.2c0.2-0.2,0.1-0.3,0.1-0.6c0.1,0,0.2,0,0.3,0c0-0.1,0-0.2,0-0.3c0.1,0,0.2,0,0.3,0
			c0,0.2,0.1,0.4,0.1,0.6c0.7,0.2,0.7,0.9,1.2,1.3c0,0.2,0,0.3,0,0.5c-0.1,0-0.2,0-0.3,0c0,0.3,0,0.5,0,0.8c0.8,0.5,1.4,1.6,2.2,1.9
			c0.1,0.6,0.4,0.7,0.4,1.4c0.1,0,0.2,0,0.3,0c0.1,0.4,0.4,0.7,0.3,1.1c-0.1,0.1-0.2,0.1-0.3,0.2c0,0.2,0,0.3,0,0.5
			c-0.1,0-0.1,0-0.1,0c0.1,0.8,0.1,1.7,0.1,2.5c-0.1,0.5-0.1,0.9-0.1,1.4c0.1,0,0.1,0,0.1,0c0,0.4,0,0.8,0,1.3
			c0.1,0.4,0.3,0.5,0.3,1.3c0.1,0,0.2,0,0.3,0c0,0.1,0,0.1,0,0.2c0.3,0.3,0.7,0.9,0.9,1.3c0.1,0,0.1,0,0.1,0c0,0.2,0,0.3,0,0.5
			c0.4,0.1,0.4,0.4,0.6,0.2c0.2-0.2,0.3-0.5,0.3-0.8c-0.1-0.2-0.2,0.1-0.1-0.2c0.1-0.1,0.2-0.1,0.3-0.2c-0.1-0.2-0.1-0.3-0.1-0.5
			c0.1,0,0.2,0,0.3,0c0-1.3,0.5-1.3,0.7-2.2c0.1,0.1,0.3,0.1,0.4,0.2c0.1-1.1,1-0.9,2.1-0.8c0.5,0.7,0.4,0.1,0.9,0.3
			c0.6,0.5,1.3,1.1,1.9,1.6c0,0.2,0,0.4,0,0.6c0.2,0.3,0.3,0.6,0.3,1.1c-0.1,0.1-0.2,0.3-0.3,0.5c-0.6,0-0.4,0-1,0
			c-0.2-0.3-0.3-0.3-0.4-0.8c-0.3,0-0.6,0-0.9,0l-0.4-0.3c-0.9-0.2-2.4,0.9-2.5,1.6c-0.1,0.2-0.1,0.1-0.1,0.5c-0.1,0-0.2,0-0.3,0
			c0,0.5-0.1,0.9-0.1,1.4c0.1,0.1,0.2,0.1,0.3,0.2c0.1,0.5,0.1,0.9,0.1,1.4c-0.2,0.1-0.5,0.1-0.7,0.2c-0.1-0.2-0.3-0.3-0.4-0.5
			c0-0.1,0-0.2,0-0.3c-0.1-0.1-0.3-0.2-0.4-0.3c0-0.2,0-0.4,0-0.6c-0.2-0.1-0.4-0.2-0.6-0.3c-0.1-0.2-0.1-0.4-0.1-0.6
			c-0.1-0.1-0.3-0.2-0.5-0.3c0-0.1,0-0.2,0-0.3c-0.1-0.1-0.2-0.1-0.3-0.2c-0.1-0.2-0.2-0.6-0.3-0.8c-0.1-0.1-0.2-0.1-0.3-0.2
			c0-0.2,0-0.3,0-0.5c-0.1-0.1-0.2-0.1-0.3-0.2c0-0.2,0-0.3,0-0.5c-0.1-0.1-0.3-0.2-0.4-0.3c-0.3-0.3-0.5-0.8-0.6-1.3
			c0.1,0,0.2,0,0.3,0c0-0.1,0-0.2,0-0.3c0.1,0,0.1,0,0.1,0c0-0.3-0.4-0.3-0.3-0.8c0.1,0,0.1,0,0.1,0c0-0.3,0-0.6,0-1
			c-0.1-0.1-0.2-0.1-0.3-0.5c-0.1,0-0.1,0-0.1,0c-0.1,0.9-0.2,0.8-0.3,1.6c-0.1,0-0.2,0-0.3,0c-0.1-0.6-0.3-0.5-0.4-0.8
			c0-0.2-0.1-0.4-0.1-0.6c-0.1-0.1-0.4-0.3-0.4-0.5c0-0.3,0-0.5,0-0.8c-0.1-0.1-0.4-0.2-0.4-0.3c0.3-0.3,0.4-0.7,0.6-1.1
			c-0.2,0-0.5,0-0.7,0C47,49,47.1,49,46.8,49c-0.1-0.3-0.2-0.3-0.3-0.6c0.2-0.2,0.1,0,0.1-0.3c0.1,0,0.3,0,0.4,0
			c0-1,0.7-1.3,0.6-1.9c-0.1,0-0.1,0-0.1,0c-0.1-0.4-0.3-1.3-0.4-1.6c-0.3-0.5-0.6-0.3-0.7-1.1c-0.1,0-0.2,0-0.3,0
			c0-0.5-0.1-0.3,0-0.8c-0.5-0.2-0.8-0.3-1-0.8c0-0.1,0-0.2,0-0.3c-0.2-0.3-0.5-0.1-0.7-0.3c-0.7-0.4-0.8-1.3-1.8-1.6
			c-0.1,0.5-0.2,1.1-0.3,1.6c-0.3-0.1-0.2-0.2-0.4-0.3c-0.1,0-0.2,0-0.3,0c0-0.1,0-0.1,0-0.2c-0.8,0-1.7,0-2.5,0
			c-0.1,0.2-0.1,0.3-0.1,0.5c-0.1-0.1-0.3-0.1-0.4-0.2c0-0.6,0-1.2-0.1-1.6c-0.7,0.4-1.2,1.4-1.9,1.6c-0.2,0.7-0.6,0.5-0.9,0.9
			c0,0.1,0,0.2,0,0.3c-0.2,0.3-0.6,0.5-0.7,0.8c0,0.1,0,0.2,0,0.3c-0.1,0.1-0.2,0.1-0.3,0.2c0,0.1,0,0.2,0,0.3
			c-0.1,0.2-0.4,0.3-0.4,0.5c-0.2,0.4-0.3,0.8-0.6,1.1c0,0.1,0,0.1,0,0.2c-0.1,0-0.2,0-0.3,0c0,1.6,1,1.7,1.2,3c-0.4,0-0.8,0-1.2,0
			c0,0.8,0.1,1.4,0.1,1.7c-0.1,0.1-0.3,0.2-0.4,0.3c-0.2,0.5-0.3,0.9-0.5,1.4c-0.1,0-0.2,0-0.3,0c0,0.3-0.1,0.5-0.1,0.8
			c-0.1,0-0.2,0-0.3,0c-0.2-0.9-0.2-1.2-0.1-2.1c-0.1,0-0.1,0-0.1,0c0,0.4,0,0.4-0.2,0.6c0,0-0.1,0-0.1,0c0,0.4,0,0.7,0,1.1
			c0,0-0.1,0-0.1,0c-0.1,0.7,0.6,0.8,0.3,1.3c-0.2,0.9-0.8,1.4-1.2,2.1c-0.1,0.2-0.1,0.4-0.2,0.6c-0.1,0.1-0.2,0.1-0.3,0.2
			c0,0.1,0,0.2,0,0.3c-0.1,0.1-0.2,0.1-0.3,0.2c0,0.1,0,0.2,0,0.3c-0.4,0.7-1.1,1.4-1.5,2.1c-0.5,0.7-0.5,1.4-1.6,1.4
			c0.1-0.6,0.1-0.7,0.3-1.1c0.1,0,0.1,0,0.1,0c0-0.4-0.1-0.7-0.1-1.1c-0.1,0-0.1,0-0.1,0c0.1-0.3,0.1-0.5,0.1-0.8
			c-0.1,0-0.1,0-0.1,0c-0.2-0.5-0.3-0.8-0.4-1.3c-0.5-0.2-1.7-1.1-2.4-1c0,0.1,0,0.1,0,0.2c-0.3,0.1-0.6,0.1-0.9,0.2
			c-0.1,0.1-0.3,0.4-0.4,0.5c-0.1,0-0.2,0-0.3,0c-0.1,0.1-0.1,0.2-0.1,0.3c-0.3,0-0.7,0-1,0c-0.1-0.3-0.1-0.5-0.1-1
			c0.2-0.3-0.1-0.7,0.1-1.3c0.1,0,0.1,0,0.1,0c0.3-0.4,0.7-0.6,0.9-1.1c0.2-0.1,0.4-0.1,0.6-0.2c-0.1,0.4-0.2,0.1,0,0.5
			c0.5-0.9,1-0.6,1.9-0.9c0,0,0.2-0.3,0.3-0.3c0,0.1,0,0.1,0,0.2c0.3,0.1,0.9,0.1,1.2,0.3c0.1,0.1,1.1,1.7,1.2,1.9
			c0,0.2-0.2,1,0,1.4c0.1,0,0.1,0,0.1,0c0,0.3,0.1,0.5,0.1,0.8c0.1,0,0.2,0,0.3,0c0.4-0.7,1.1-0.9,1.3-1.9c0.1-0.1,0.3-0.1,0.4-0.2
			c0.2-1.4,0.4-2.9,0.6-4.3c0-0.4-0.2-0.3-0.3-0.5c0-0.1-0.3-2.7-0.3-2.7c0.1,0,0.1,0,0.1,0c0.2-0.6,0.4-1.4,0.7-1.7
			c0.1-0.1,0.3-0.1,0.4-0.2c0.3-0.5-0.2-0.6,0.3-1.1c0.2,0.2,0,0.1,0.3,0.2c0-0.1,0-0.2,0-0.3c0,0-0.1,0-0.1,0c0,0.1,0,0.1,0,0.2
			c-0.2,0.2-0.1-0.3-0.1-0.3c0.3-0.2,0.5-0.3,0.7-0.5c0-0.1,0-0.2,0-0.3c0.3-0.4,0.4,0,0.6-0.6c-0.4,0.1-0.1,0.3-0.4,0
			c0.4-0.3,1.1-1.2,1.2-1.7c0.1,0.1,0.3,0.1,0.4,0.2c-0.1-0.2-0.1-0.3-0.1-0.5c0.1-0.1,0.2-0.1,0.3-0.2c0-0.2,0.1-0.3,0.1-0.5
			c0.6,0.4,0.7,1.2,1.5,1.4c0-0.1,0-0.1,0-0.2c0.2-0.2,0.4-0.4,0.4-0.8c-0.9-0.1-1.2,0-1.2-1.1c0.6-0.3,1-0.8,1.6-1.1
			c0,0.3,0,0.3,0.1,0.5c0.3-0.9,1.2-0.4,1.8-0.9c0.4-0.4,0.5-0.9,0.4-1.7c-0.3-0.2-0.9-1.1-1-1.6c0.4-0.2,0.9-0.3,1.3-0.5
			c0-0.1,0-0.1,0-0.2c-0.3-0.4-0.4-0.9-0.6-1.4c-0.6-1.2-2.1-4.1-3.3-4.4c0-0.1,0-0.2,0-0.3c-0.5-0.1-0.5-0.2-0.9-0.3
			c0-0.1,0-0.2,0-0.3c-0.1,0-0.2,0-0.3,0c0-0.5-0.2-0.9-0.3-1.3c-0.1,0-0.3,0-0.4,0c0,0.4,0,0.8,0,1.3c-0.1,0-0.1,0-0.1,0
			c-0.5-0.4-2.2,0.5-2.8,0.6c-0.1,0.5-0.4,0.8-0.9,1c-0.2-0.9-1.2-2.1-0.7-3.5l0.3-0.3c0.2-0.5-0.1-0.7,0.1-1.1
			c0.1-0.3,0.9-1.3,1-1.4c0.2,0,0.4,0,0.6,0c0.1-0.2,0.2-0.3,0.3-0.5c0.1,0,0.2,0,0.3,0c0-0.1,0-0.1,0-0.2c0.1,0.1,0.3,0.1,0.4,0.2
			l0.3-0.3c0.3,0,0.6,0,0.9,0c0-0.1,0-0.1,0-0.2c1.2,0.3,2.4,0.5,3.6,0.8c0,0,0.3,0.3,0.3,0.3c0.1,0,0.2,0,0.3,0
			c0.1,0.1,0.1,0.2,0.1,0.3c0.1,0,0.3,0,0.4,0c0.1,0.2,0.2,0.3,0.3,0.5c0.4,0.1,0.8,0.1,1.2,0.2c0-0.2,0-0.4,0-0.6
			c-0.4-0.2-0.8-0.3-0.9-0.8c-0.1,0-0.2,0-0.3,0c0-0.1,0-0.2,0-0.3c-0.2,0.1-0.5,0.1-0.7,0.2c0-0.1-0.1-0.2-0.1-0.3
			c-0.1,0-0.3,0-0.4,0c0,0-0.6-0.5-0.6-0.5c-0.2,0-0.4,0-0.6,0c0-0.1,0-0.1,0-0.2c-0.2,0-0.4,0-0.6,0l-0.6-0.5c0,0-0.1,0-0.1,0
			c0,0.1,0,0.1,0,0.2c-0.1-0.1-0.3-0.1-0.4-0.2c0,0.1,0,0.1,0,0.2c-0.4,0.1-1.7-0.6-1.8-0.8c0-0.1,0-0.2,0-0.3
			c-0.2-0.2-0.1,0-0.1-0.3c0.4,0.1,0.9,0.1,1.3,0.2c0-0.1,0-0.1,0-0.2c0.2,0,0.5,0,0.7,0c0,0.1,0,0.1,0,0.2c0.2,0.1,0.4,0.1,0.6,0.2
			c0-0.2-0.1,0.1-0.1-0.2c-0.2-0.1,0.5-0.2,0.6-0.2c0,0.1,0.1,0.2,0.1,0.3c0.1,0,0.5-0.2,0.7-0.2c0.4,0.1,1.3,0.7,1.5,0.5
			c0.2-0.3,0.3-0.6,0.3-1.1c-0.4-0.2-0.6-0.3-0.7-0.8c0.3-0.4,0.1-0.8,0.3-1.3c0.1-0.1,0.3-0.2,0.5-0.3c0-0.1,0-0.2,0-0.3
			c0,0,0.1,0,0.1,0c0-0.3-0.1-0.5-0.1-0.8c0-0.1,0.4-0.4,0.4-0.5c0-0.3,0-0.5,0-0.8c0.2-0.5,0.6-0.6,0.7-1.1c0.8-0.2,0.9-0.5,1.3-1
			c-0.1-0.5-0.1-1.1-0.1-1.7c-2.4-1.1-1.6-3.6,1.4-3.5c0.4,0,0.8,0.2,1.1,0.4c0.3,0.2,0.8,0.6,0.8,1.5c0,0.5-0.3,0.9-0.6,1.1
			c-0.8,0.6-1.1-0.1-1,1.8C41.3,11.9,41.3,12.2,41.2,12.6L41.2,12.6z"/>
		<path fill="#FFFFFF" d="M39.9,13.9c0,0.8-0.1,0.9-0.4,1.3c-0.1,0.1-0.2,0.1-0.3,0.2c0,0.3,0,0.5,0,0.8l-0.3,0.3
			c-0.1,0.3-0.1,0.6-0.1,0.9c-0.1,0.1-0.2,0.1-0.3,0.2c0.1,0.2,0.1,0.4,0.2,0.6c-0.1,0.4-0.1,0.7-0.2,1.1c0.1,0.7,0.6,1.3,0.7,2.1
			c0.1,0,0.1,0,0.1,0c0.1-0.3,0.1-0.5,0.1-0.8c0,0-0.1,0-0.1,0c0-0.3,0-0.5,0-0.8l0.3-0.3c0-0.3-0.4-0.6-0.3-1.1c0.1,0,0.1,0,0.1,0
			c0-0.3,0-0.5,0-0.8c0.1-0.1,0.2-0.1,0.3-0.2c0.1-0.3,0.1-0.6,0.1-0.9c0.2-0.1,0.2-0.1,0.6-0.2c0.2,0.3,0.5,0.7,0.6,1
			c0,0.3,0,0.5,0,0.8c0.1,0.2,0.4,2,0.3,2.2l-0.3,0.3c0,0.1,0.1,0.4,0.1,0.6c0.4-0.1,0.3-0.1,0.5-0.3c0.3-0.3,0-0.1,0.1-0.5
			c0.1-0.1,0.2-0.1,0.3-0.2c-0.1-0.2-0.1-0.3-0.1-0.5c0-0.3,0.3-1,0.3-1.3c-0.1,0-0.1,0-0.1,0c0.1-0.3,0.1-0.6,0.1-0.9
			c-0.1-0.1-0.3-0.2-0.4-0.3c0-0.2,0-0.3,0-0.5l-0.3-0.3c-0.1-0.3,0.2-0.6,0.1-0.6c-0.1-0.1-0.3-0.1-0.5-0.2c0-0.2,0-0.3,0-0.5
			c-0.2-0.4-0.5-0.8-0.7-1.3C40.1,14,40.4,13.9,39.9,13.9L39.9,13.9z"/>
		<path fill="#FFFFFF" d="M26.3,24c-0.4-0.1-0.3,0-0.4-0.5c0.5-0.3,0.5-1,0.7-1.6c0.1,0.1,0.3,0.1,0.4,0.2c0-0.1,0-0.1,0-0.2
			c0.1,0,0.1,0,0.1,0c-0.1-0.2-0.1-0.3-0.1-0.5c0.2-0.3,0.6-0.3,0.9-0.5c0.1-0.2,0.3-0.4,0.4-0.6c0.1,0.1,0.3,0.1,0.4,0.2
			c0.5-0.2,0.3-0.4,1-0.5c0-0.1,0-0.2,0-0.3c0.4-0.1,0.8-0.1,1.2-0.2c0.1,0.3,0.1,0.5,0.1,0.9c-0.2,0.2-0.1,0-0.1,0.3
			c-2.1,0.9-4.2,2.7-4.6,5.2c-0.2-0.2-0.1,0-0.1-0.3C26,25.4,26.2,24.4,26.3,24L26.3,24z"/>
		<path fill="#FFFFFF" d="M50,19.6c0,0.1,0,0.2,0,0.3c0.1,0.1,0.3,0.1,0.4,0.2c0-0.1,0-0.1,0-0.2c0,0,0.1,0,0.1,0c0-0.1,0-0.1,0-0.2
			c0.1,0.1,0.3,0.1,0.4,0.2c0.1,0.2,0.1,0.3,0.1,0.5c0.2-0.1,0.4-0.1,0.6-0.2c0.1,0.1,0.1,0.2,0.2,0.3c0.2,0.1,0.4,0.1,0.6,0.2
			c0.1,0.2,0.3,0.4,0.4,0.6c0.1,0,0.2,0,0.3,0c0.5,0.4,1.2,1.8,1.3,2.5c-0.1,0.1-0.3,0.1-0.4,0.2c0.1,0.6,0.2,1.3,0,1.9
			c-0.4-0.4-0.3-1.1-0.6-1.6c-0.2-0.3-0.8-0.8-1-1.1c0-0.1,0-0.2,0-0.3c-0.3-0.4-0.4,0-0.6-0.6c-0.4-0.1-0.8-0.4-1-0.6
			c-0.1-0.1-0.1-0.2-0.1-0.3c-0.9-0.6-1.5,0.2-1.5-1.6C49.5,19.6,49.7,19.6,50,19.6L50,19.6z"/>
		<path fill="#FFFFFF" d="M33.5,23.4c-0.1,0.1-0.3,0.2-0.4,0.3c-0.2,0.2-0.1,0.3-0.1,0.6c0.2,0.1,0,0,0.1,0.2c0.5,0,0.5,0.2,0.7,0
			c0.6-0.1,0.6-0.1,0.7-0.6c-0.3-0.2-0.2-0.2-0.6-0.3C33.8,23.4,33.8,23.4,33.5,23.4L33.5,23.4z"/>
		<path fill="#FFFFFF" d="M46.3,24.3c0.4,0.1,0.8,0.2,1.2,0.3c0-0.3,0.1-0.6,0.1-1c-0.3-0.2-0.3-0.3-0.9-0.3c-0.2,0.2,0,0.1-0.3,0.2
			C46.4,23.8,46.3,23.9,46.3,24.3L46.3,24.3z"/>
		<path fill="#FFFFFF" d="M54.7,28.4c-0.1,0-0.2,0-0.3,0c0.2,0.6,0.1,0.3-0.1,0.8c-0.1,0-0.1,0-0.1,0c0-0.2-0.1-0.4-0.1-0.6
			c-0.1,0-0.1,0-0.1,0c-0.2-0.5,0.2-0.6,0.3-0.8c0.1-0.3-0.1-0.4-0.1-0.5c0.1-0.2,0.1-0.3,0.1-0.5c0.1,0,0.2,0,0.3,0
			c0.1-0.2,0.1-0.4,0.1-0.6c0.1-0.1,0.3-0.1,0.4-0.2c0,0.3,0,0.6,0,1C54.8,27.3,54.7,28,54.7,28.4L54.7,28.4z"/>
		<path fill="#FFFFFF" d="M25.7,26.4c0.6,0.4,0.9,0.5,0.9,1.6c0.2,0.3,0.1,0.2,0,0.6c0,0-0.1,0-0.1,0c0.1,0.4,0.1,0.3,0,0.6
			c-0.2-0.2-0.1,0-0.1-0.3C25.8,28.4,25.7,27.5,25.7,26.4L25.7,26.4z"/>
		<path fill="#FFFFFF" d="M24.5,26.7c-0.1,0.7-0.2,1.2-0.4,1.7l-0.3,0.3c-0.2,0.6,0.3,2.2,0.3,2.2c0.1,0.1,0.3,0.1,0.4,0.2
			c0,0.1,0,0.2,0,0.3c0.5,0.3,0.9,0.6,1,1.3c0.2,0,0.4,0,0.6,0c0.4,0.6,1.6,1.1,2.2,1.6c0.1,0.2,0.2,0.3,0.3,0.5
			c0.7,0.7,1.9,1.8,2.2,2.9c0,0.3,0,0.5,0,0.8c0.1,0.1,0.2,0.1,0.3,0.2c0,0.2,0,0.3,0,0.5c0,0,0.1,0,0.1,0c0,0.3,0,0.5,0,0.8
			l0.3,0.3c0.2,0.5,0.4,1,0.4,1.6c-0.7-0.2-1.1-1.3-1.5-1.9c-0.2-0.2-0.5-0.4-0.7-0.6c0-0.3,0.2-0.1,0-0.3c0-0.1,0-0.1,0-0.2
			c-0.1,0-0.2,0-0.3,0c-0.1-0.1-0.4-0.4-0.4-0.5c-0.1-0.4-0.2-0.7-0.3-1.1c-0.1,0.1-0.2,0.1-0.3,0.2L28,36.7c-0.1,0-0.3,0-0.4,0
			l-0.4-0.3c-0.5-0.2-2.7-0.2-3.1,0c0,0.1,0,0.1,0,0.2c-0.2,0.1-0.4,0.1-0.6,0.2l-0.1-0.2c-0.1,0.1-0.1,0.2-0.1,0.3
			c-0.1,0.1-0.3,0.1-0.4,0.2c-0.1,0.9-0.3,0.6-0.5,1.1c0.1,0.2,0.1,0.4,0.2,0.6c-0.1,0-0.1,0-0.2,0c0,0.2,0,0.4,0,0.6
			c-0.1,0.1-0.2,0.1-0.3,0.2c-0.1,0.3,0.1,0.3,0.1,0.3c0,0.4-0.1,0.7-0.1,1.1c0.2,0.1,0.3,0.4,0.4,0.5c0.6,0.4,0.7-0.5,0.9,0.6
			c-0.2,0.2-0.1,0-0.1,0.3c-0.4,0.2-0.9,0.5-1.2,0.8c-0.5,0-1.1,0-1.6,0c-0.1-0.1-0.1-0.2-0.1-0.3c-0.2,0.1-0.4,0.1-0.6,0.2
			c-0.4-0.1-1.9-1.2-2.1-1.6c0-0.2-0.1-0.4-0.1-0.6c-0.1-0.1-0.3-0.2-0.4-0.3c0-0.3,0-0.5,0-0.8c-0.1-0.4-0.5-0.6-0.6-1.1
			c-0.5-0.1-0.6-0.3-1.2-0.3c-0.2,0.4-0.7,0.9-0.9,1.4c-0.1,0.5-0.1,1.1-0.1,1.6c0,0.2-0.2-0.1-0.1,0.2c0.1,0.6,0.3,1.1,0.3,1.9
			c0.4,0.3,0.4,0.6,0.7,1.1c0.1,0.1,0.3,0.2,0.4,0.3c0,0.2,0,0.3,0,0.5c0.1,0.1,0.3,0.1,0.4,0.2c0.1,0.2,0.3,0.4,0.4,0.6
			c0.1,0,0.2,0,0.3,0c0.1,0.2,0.2,0.4,0.3,0.6c0.4,0.1,0.8,0.1,1.2,0.2c0,0,0.6,0.5,0.6,0.5c0.2,0.1,0.3-0.2,0.3-0.2
			c0.3,0,0.4,0.2,0.4,0.2c0.5,0.1,1.2-0.1,1.5-0.2c0.2,0.1,0.4,0.1,0.6,0.2l0.3-0.3c0.4-0.1,0.9-0.1,1.3-0.2c0.2-0.7,0.8-0.9,1-1.6
			c0.3-0.8-0.7-1.1-0.1-1.9c0.1-0.6,0.3-0.9,0.9-1c0.2,0.2,0.7,0.4,0.9,0.6c0,0.2,0,0.4,0,0.6c0,0,0.3-0.3,0.4,0c0,0.7,0,1.5,0,2.2
			c0.3,0.2,0.6,0.3,0.9,0.5c-0.9,4.1-4,6.2-8.5,6.2c0.1-0.1,0.1-0.2,0.1-0.3c-0.2,0-0.5,0-0.7,0c-0.2,0.2-1.1,0.2-1.5,0l-0.3-0.3
			c-0.3-0.1-0.7-0.1-1-0.2c-0.3-0.1-0.5-0.6-0.7-0.8c-0.3-0.1-0.6-0.2-0.9-0.3c-0.6-0.4-0.7-1.3-1.5-1.6c-0.3-1.2-1.1-1.5-1.2-3
			c-0.1,0-0.2,0-0.3,0c-0.2-0.7-0.3-1.5-0.5-2.2c0,0-0.1,0-0.1,0c-0.1-0.4,0.1-0.4,0.1-0.6l-0.3-0.3c-0.1-0.4-0.1-1.1-0.1-1.4
			c0.2,0,0.5,0,0.7,0c0-1.2-0.6-1.5-0.3-2.5c0-0.3,0-0.6,0-1l0.3-0.3c0.1-0.3,0.1-0.5,0.2-0.8c0.1-0.1,0.3-0.2,0.4-0.3
			c0-0.1,0-0.2,0-0.3c0.3-0.5,0.4,0.1,0.6-0.8c0.1,0,0.2,0,0.3,0c0.3-0.8,0.8-1.2,1.6-1.4c0.1-0.5,0.4-0.7,0.9-0.8
			c0-0.1,0-0.2,0-0.3c1-0.1,1.3-0.7,2.1-1c0.3,0.1,0.6,0.1,0.9,0.2c0,0,0.5-0.6,0.6-0.6c0.5,0.1,1,0.1,1.5,0.2l0.3-0.3
			c0.7,0.1,1.4,0.1,2.1,0.2c0,0.1,0,0.1,0,0.2c0,0-0.1,0-0.1,0c-0.3,0.1,0.4,0.2,0.4,0.2c0.1-0.2,0.1-0.3,0.2-0.6
			C22.2,31,22,30.4,22.1,30c0.1-0.1,0.2-0.1,0.3-0.2c0-0.3,0-0.5,0-0.8l0.3-0.3c0-0.3,0-0.5,0-0.8c0-0.1,0.7-0.7,0.7-0.8
			C23.7,26.9,24.1,26.8,24.5,26.7L24.5,26.7z"/>
		<path fill="#FFFFFF" d="M57.1,27.3c0.6,0.2,0.2,0,0.4,0.5c0.1,0.1,0.2,0.1,0.3,0.2c0,0.2,0,0.4,0,0.6c0.1,0.1,0.3,0.2,0.4,0.3
			c0,0.2,0,0.4,0,0.6c0.1,0,0.1,0,0.1,0c0.1,0.4-0.3,0.3-0.3,0.5c-0.1,0.3,0.3,0.5,0.3,0.6c0,0.1,0,0.1,0,0.2c-0.1,0-0.1,0-0.1,0
			c0,0.1,0,0.2,0,0.3c0.1,0,0.1,0,0.1,0c0.2,0.4,0.6,0.3,1.2,0.3c0.5-0.5,0.8,0.2,1.3,0.2c0-0.1,0-0.1,0-0.2
			c0.3-0.1,0.6-0.1,0.9-0.2c0,0.1,0,0.1,0,0.2c0.4,0.1,0.8,0.1,1.2,0.2c0.1,0.2,0.2,0.3,0.3,0.5c0.1,0.1,0.3-0.3,0.6-0.2
			c0.6,0.2,1.3,0.6,1.9,0.8c0,0.1,0,0.2,0,0.3c0.7,0.2,1.3,0.4,1.5,1.1c0.1,0,0.3,0,0.4,0c0.3,0.4,0.8,0.6,1,0.9c0,0.1,0,0.2,0,0.3
			c0.2,0.3,0.6,0.5,0.7,0.8c0,0.2,0,0.3,0,0.5c0.2,0.2,0.4,0.3,0.6,0.5c0,0.2,0,0.4,0,0.6c0.1,0,0.1,0,0.1,0
			c0.1,0.2,0.1,0.3,0.1,0.6c-0.7,0.5-0.6,1-0.4,1.9c-0.1,0-0.1,0-0.1,0c-0.1,0.4-0.3,0.7-0.1,0.8c0.2,0.3,0.1,0.2,0.4,0.3
			c0-0.1,0-0.1,0-0.2c0.2-0.2,0.4-0.5,0.4-0.9c0.1,0,0.1,0,0.1,0c0,0.3,0,0.5,0,0.8c0.3,0.5-0.1,2-0.3,2.5c0,0.3,0,0.5,0,0.8
			c-0.1,0.1-0.3,0.2-0.4,0.3c0,0.1,0.2,0.5,0.1,0.8L69.9,46c0,0.2,0,0.3,0,0.5c-0.1,0.1-0.4,0.4-0.4,0.5c-0.1,0.3-0.1,0.8-0.3,1.1
			c-0.8,1.4-2.6,3.2-4.2,3.8c-0.2,0-0.5,0-0.7,0c0,0.1,0,0.1,0,0.2c-0.3,0.1-0.5,0.1-0.7,0.2c0,0-0.1-0.2-0.3-0.2
			c0,0.1-0.1,0.2-0.1,0.3c-0.9,0.1-1.8,0.1-2.7,0.2c0-0.1,0-0.2,0-0.3c-0.3,0-0.8,0.2-0.9,0.2c0-0.1,0-0.1,0-0.2c-0.3,0-0.6,0-0.9,0
			c0-0.1,0-0.2,0-0.3c-1.5,0-1.9-1.1-3-1.4c-0.2-0.6-0.6-0.7-0.9-1.1c-0.5-0.7-0.8-1.9-1-2.9c1.1-0.4,0.8-1.4,0.7-2.9
			c0.5-0.2,0.4-0.4,1-0.5c0-0.1,0-0.2,0-0.3c-0.3-0.1-0.1,0-0.3-0.2c0.1,0,0.2,0,0.3,0c0.1-0.1,0.5-0.4,0.7-0.3c0,0.1,0,0.1,0,0.2
			c0.5,0.2,0.5,0.3,0.4,1c0.1,0.2-0.2,1.6,0.1,2.1c0.1,0.4,0.2,0.2,0.3,0.5c0.4,0.6,0.3,0.8,1.3,0.8c0,0.1,0,0.2,0,0.3
			c0.3,0,0.7,0,1,0c0,0.1,0.1,0.2,0.1,0.3c0.2-0.1,0.4-0.1,0.6-0.2c0,0,0.1,0.2,0.3,0.2c0-0.1,0-0.1,0-0.2c0.3,0,0.6,0,0.9,0
			c0-0.1,0-0.1,0-0.2c0.2,0,0.3,0.3,0.6,0.2c0.1-0.1,0.1-0.2,0.2-0.3c0.1,0,0.3,0,0.4,0c0-0.1,0-0.1,0-0.2C62.8,46.7,63,47,63,47
			c0.4,0,0.8-0.4,0.9-0.8c0.5-0.1,0.5-0.2,1-0.3c0.1-0.5,0.2-0.6,0.3-1c0.1,0.1,0.2,0.1,0.3,0.2c0-0.1,0-0.1,0-0.2
			c0.3-0.3,0-0.3,0.1-0.6c0.2-0.3,0.8-0.5,0.9-1c-0.1-0.2-0.1-0.4-0.2-0.6c0.1-0.7,0.4-2.1,0.2-2.7c0,0-0.4-0.6-0.4-0.6
			c0-0.2-0.1-0.4-0.1-0.6c-0.1-0.2-0.4-0.3-0.6-0.5c-0.3,0.1-0.6,0.2-0.9,0.3c-0.1,0.5-0.3,0.4-0.4,0.6c-0.1,0.3-0.1,0.6-0.1,0.9
			c-0.2,0.4-1.3,2-1.6,2.2c-0.2,0.1-0.4,0.1-0.6,0.2c-0.1,0.1-0.1,0.2-0.1,0.3c-0.1-0.1-0.3-0.1-0.4-0.2C61,42.8,61,42.9,60.9,43
			c-0.4,0.2-1.9,0.3-2.2,0c-0.5-0.1-1.1-0.5-1.2-1c-0.1-0.2-0.1-0.1-0.1-0.5c0.1,0,0.1,0,0.1,0c0-0.1,0-0.1,0-0.2
			c0.1,0.1,0.2,0.1,0.3,0.2l0.3-0.3c0.2,0,0.5,0,0.7,0c-0.1-1.4-0.6-2.6-0.9-4.1c-0.5-0.3-1.1-0.8-1.6-0.9c-0.2-0.1-0.7,0.2-0.7,0.2
			c0-0.1,0-0.2,0-0.3c-0.3,0.1-0.6,0.1-0.9,0.2c0,0.1,0,0.1,0,0.2c-0.5,0-1,0-1.5,0c0,0.1-0.1,0.2-0.1,0.3c-0.1,0-0.3,0-0.4,0
			c0,0.1-0.1,0.2-0.1,0.3c-0.1,0-0.2,0-0.3,0c-0.4,0.3-0.5,0.8-0.7,1.3c-0.2,0.2-0.4,0.3-0.6,0.5c0,0.1,0,0.2,0,0.3
			c-0.2,0.2-0.4,0.3-0.6,0.5c0,0.1,0,0.2,0,0.3c-0.4,0.6-1.1,0.9-1.3,1.7c-0.1,0-0.3,0-0.4,0c0.1-0.4,0.2-0.3,0.3-0.5
			c0-0.1,0-0.2,0-0.3c0,0,0.1,0,0.1,0c0-0.2,0-0.4,0-0.6c0.2-0.1,0.3-0.2,0.5-0.3c-0.1-0.3-0.1-0.6-0.1-0.9c0.1,0,0.1,0,0.1,0
			c0-0.2,0-0.3,0-0.5c0.1-0.1,0.3-0.2,0.4-0.3c0.1-0.3,0.1-0.5,0.1-0.8c0.1-0.1,0.2-0.1,0.3-0.2c0.5-0.9,0.4-1.8,1.6-1.9
			c0.1-0.3,0.2-0.6,0.3-1c1-0.2,1.2-1,2.2-1.3c0-0.1,0-0.2,0-0.3c0.9-0.2,1-1,1.8-1.3c0-0.2,0-0.3,0-0.5c0.1-0.1,0.3-0.1,0.4-0.2
			c0.1-0.2,0.4-1,0.3-1.3c-0.1-0.7-1-2-0.7-2.4c0.1-0.5,0.1-0.4,0.6-0.5C56.9,27,57,27,57.1,27.3L57.1,27.3z"/>
		<path fill="#FFFFFF" d="M38.7,28.4c0.1,0.4,0.2,0.3,0.3,0.5c0,0.1,0,0.2,0,0.3c0.1,0,0.1,0,0.1,0c0,0.2,0,0.3,0,0.5
			c0.1,0.1,0.2,0.1,0.3,0.2c0,0.1,0,0.2,0,0.3c0,0,0.3,0.3,0.3,0.3c0,0.3,0,0.6,0,1c0.1,0.4,0.3,0.8,0.4,1.3c0.2-0.1,0,0,0.1-0.2
			c0.2-0.2,0.4-1,0.4-1.3c0-0.3,0-0.5,0-0.8c0.1-0.1,0.3-0.2,0.4-0.3c0.2-0.3-0.1-0.3,0.1-0.6c0.2-0.2,0-0.1,0.3-0.2
			c0-0.3,0.1-0.6,0.1-0.9c-0.1,0-0.1,0-0.1,0c-0.5,0.6-1.1,1-1.8,0.9c0-0.1,0-0.2,0-0.3C39.3,28.9,39.2,28.6,38.7,28.4L38.7,28.4z"
			/>
		<path fill="#FFFFFF" d="M27.2,28.8c0.3,0,0.3,0,0.4,0.2c0.2,0.2,0.2,0.5,0.1,1c0.1,0,0.3,0,0.4,0c0-0.1,0-0.2,0-0.3
			c1.2,0.8,1,1.6,3.1,1.6c0.3-0.3,0.1,0.2,0.6,0c0.6-0.2,0.2-0.6,1.2-0.6c0-0.3,0-0.5,0-0.8c0.3-0.2,0.3-0.3,0.4-0.6
			c0.1,0,0.2,0,0.3,0c0,0.1-0.1,0.2-0.1,0.3c0.1,0,0.1,0,0.1,0c0.1,0.3,0.1,0.4,0.2,0.8c-0.5,0.4-0.3,1-1,1.3c0,0.6-0.1,0.3,0.1,0.9
			c0.1-0.1,0.2-0.1,0.3-0.2c0.1,0.1,0.1,0.2,0.1,0.3c0.1,0.1,0.3,0.1,0.5,0.2c-0.2,0.5-0.4,1.1-0.6,1.6c0.1,0.1,0.2,0.1,0.3,0.2
			c0.1,0.2,0,0,0.1,0.2c0-0.1,0-0.2,0-0.3c0.3,0.1,0.6,0.1,0.9,0.2c0-0.4,0-0.6,0.1-0.8c0,0.9,0.3,1.7,0,2.5
			c-0.1,0.4-0.5,0.6-0.6,1.1c-0.4,0.1-0.3,0.2-0.4,0.3c-0.5,0.1-1,0.1-1.5,0.2c0-0.1,0-0.2,0-0.3c-0.5-0.2-0.8-0.2-0.9-0.9
			c0.3-0.2,0.3-0.3,0.9-0.3c0.5,0.5,1.2-0.4,1.5,0c0-0.2,0-0.3,0-0.5c-0.3-0.4-0.1-0.7-0.3-1.1c-0.5-0.5-1-1-1.5-1.4
			c0-0.2,0-0.3,0-0.5c0,0-0.2-0.4-0.3-0.5c-0.1,0-0.3,0-0.4,0c0,0.4,0.1,0.5,0.1,0.8c-0.3,0-0.5,0-0.7,0c-0.3-0.3-0.4,0-0.7-0.2
			c-0.8-0.3-2.3-1-2.5-1.9C27.2,30.6,27.2,29.6,27.2,28.8L27.2,28.8z"/>
		<path fill="#FFFFFF" d="M53.3,28.8c0,0.3,0,1.9-0.1,2.2c-0.1,0.1-0.3,0.2-0.4,0.3c-0.6,0.7-0.9,1.4-1.9,1.1
			c-0.1,0.2-0.2,0.3-0.3,0.5c-0.3,0-0.5,0-0.7,0c0,0.1,0,0.1,0,0.2c-0.3,0.1-0.6,0.1-0.9,0.2c0.1-0.2,0.1-0.4,0.2-0.6
			c-0.2-0.1-0.2-0.1-0.6-0.2c0,0.1,0,0.1,0,0.2c0,0-0.1,0-0.1,0c0.1,0.3,0.1,0.5,0.1,0.8c-0.1,0.2-0.6,0.2-0.7,0.3
			c-0.5,0.4-0.9,1.4-0.9,2.4c0.1,0.1,0.3,0.1,0.4,0.2c0.2,0.2,0.2,0.1,0.6,0.2c0,0.1,0,0.2,0,0.3c0.1,0,0.2,0,0.3,0
			c0.1-0.5,0.2-0.5,0.7-0.5c0,0.5,0.2,0.5,0,0.8c-0.2,0.4-0.4,0.6-1,0.6c-0.2,0.2-0.2,0.1-0.6,0.2c-0.1-0.3-0.2-0.3-0.3-0.6
			c-0.2,0.1-0.5,0.1-0.7,0.2c-0.2-0.8-1.4-2.6-0.5-3.6c0,0.2,0,0.4,0,0.6c0.5,0.1,0.5,0.1,1,0c-0.1-0.5-0.2-1.1-0.3-1.6
			c0.3-0.2,0.6-0.4,1-0.5c0-0.2,0.1-0.4,0.1-0.6c-0.1-0.1-0.3-0.1-0.4-0.2c0-0.1,0-0.2,0-0.3c0,0,0.1,0,0.1,0
			c-0.1-0.1-0.1-0.2-0.1-0.3c-0.1,0.1-0.3,0.1-0.4,0.2c-0.1-0.6-0.2-0.7-0.3-1.3c0.5-0.1,0.2-0.3,0.6,0c0.3,0.2,0.2,0.1,0.3,0.5
			c0.5,0.1,0.4,0.3,0.9,0.5c0,0.1,0,0.2,0,0.3c0.2,0,0.4,0,0.6,0c0,0.1,0,0.1,0,0.2c0,0-0.6,0-0.3,0.2c0.1,0,0.1,0,0.1,0
			c0.2,0.2,0.4,0.2,0.7,0.2c0-0.1,0-0.2,0-0.3c0.9,0.1,1.8,0.2,2.1-0.8c0.1,0,0.2,0,0.3,0c0.1-0.4,0.2-0.5,0.3-0.8
			c0.2,0.2,0.1,0,0.1,0.3c0.3,0,0.3,0,0.4-0.2c0.2-0.3,0-0.5,0.1-1C53,28.8,53.2,28.8,53.3,28.8L53.3,28.8z"/>
		<path fill="#FFFFFF" d="M57.4,30.7c0.1,0.2,0.1,0.3,0.1,0.5c0.3-0.1,0.1,0,0.3-0.2c0.3-0.1,0.1,0,0.3-0.2
			c-0.1-0.1-0.3-0.1-0.4-0.2c-0.2-0.2-0.2-0.1-0.6-0.2c0,0.1,0,0.1,0,0.2C57.2,30.7,57.3,30.7,57.4,30.7L57.4,30.7z"/>
		<path fill="#FFFFFF" d="M57.1,31.6c0,0.4,0.1,0.5,0.1,0.8c0.1,0,0.1,0,0.1,0c0-0.1,0-0.1,0-0.2c0.1-0.2,0.1-0.1,0.1-0.5
			C57.4,31.7,57.2,31.7,57.1,31.6L57.1,31.6z"/>
		<path fill="#FFFFFF" d="M12.6,34.6c-0.1,0.3-0.1,0.5-0.1,0.8c-0.1,0-0.1,0-0.1,0c0.1,0.5,0.2,0.9,0.3,1.4c0,0-0.2,0.2-0.1,0.5
			c0.1,0,0.1,0,0.1,0c0,0.3,0,0.5,0,0.8c-0.1,0.3-0.4,1.2-0.3,1.7c0,0,0.1,0,0.1,0c0.1,0.4,0.1,0.7,0.1,1.1c0.1,0,0.2,0,0.3,0
			c0-0.3,0-0.6,0-1c0.1,0,0.2,0,0.3,0c0.2-0.4,0.3-0.4,0.3-0.9c0.4-0.5-0.2-2-0.3-2.5c-0.1-0.3,0.1-0.5,0.1-0.5
			c0-0.2-0.1-0.7-0.1-1.1C12.9,34.8,13,34.7,12.6,34.6L12.6,34.6z"/>
		<path fill="#FFFFFF" d="M19.3,35.9c-0.3,1-0.4,0.3-0.7,0.6c0.1,0.2,0.1,0.3,0.1,0.5c-0.1,0.1-0.2,0.1-0.3,0.2
			c-0.1,0.6-0.2,1.2-0.3,1.7c0.3,0.3,0.3,0.8,0.4,1.1c0.3,0.5,0.8,0.1,1,1c0.6-0.1,0.5,0.1,0.6-0.5c-0.5-0.3-0.3-0.7-0.4-1.4
			c-0.4-1.8,1.2-2.5,1.6-4.1c-0.1,0-0.1,0-0.1,0c-0.3,0.3-0.4,0-0.7,0.2C20.1,35.3,19.8,35.7,19.3,35.9L19.3,35.9z"/>
		<path fill="#FFFFFF" d="M60.8,40.8c1.1-0.2,2.1-1.4,2.2-2.5c-0.1,0-0.2,0-0.3,0c-0.1-0.5-0.2-1-0.3-1.4c-0.4-0.1-0.3,0-0.4-0.5
			c-0.2-0.2-0.3-0.3-0.3-0.8c-0.1,0.1-0.3,0.1-0.4,0.2c-0.1-0.1-0.1-0.2-0.1-0.3c-0.4-0.2-1.3-0.4-1.5-0.3c-0.1,0-0.1,0-0.1,0
			c0.2,0.4,0.5,0.7,0.7,1.1c0.1,0.1,0.3,0.2,0.5,0.3c0.3,0.4,0.2,0.8,0.6,1.1c0,0.8,0.2,1.4,0,2.1c-0.1,0-0.1,0-0.1,0
			C61,40.1,60.9,40.4,60.8,40.8L60.8,40.8z"/>
		<path fill="#FFFFFF" d="M14.2,36c0.2-0.1,0.4-0.1,0.6-0.2c-0.1-0.4-0.2-0.5-0.3-0.8c-0.2,0.2-0.1,0-0.1,0.3
			C14.2,35.6,14.3,35.7,14.2,36L14.2,36z"/>
		<path fill="#FFFFFF" d="M65.6,35.3c0,0.2,0,0.4,0,0.6c0.3,0.2,0.2,0.2,0.6,0.3c0,0.2-0.1,0.4-0.1,0.6c0.2,0,0.4,0,0.6,0
			c0-0.1,0-0.1,0-0.2c0,0,0.1,0,0.1,0c0-0.5,0.1-0.4,0-0.6c0-0.1,0-0.1,0-0.2c-0.2,0-0.4,0-0.6,0c0-0.3,0-0.3-0.1-0.5
			c0-0.1,0-0.1,0-0.2C65.9,35.3,65.7,35.3,65.6,35.3L65.6,35.3z"/>
		<path fill="#FFFFFF" d="M13.6,35.9c0,0.2,0,0.3,0,0.5c0.1,0.1,0.2,0.1,0.3,0.2c0.1,0.2,0,0,0.1,0.2c0-0.2,0-0.4,0-0.6
			C13.9,36,13.8,35.9,13.6,35.9L13.6,35.9z"/>
		<path fill="#FFFFFF" d="M39.6,36.7c0,0.2,0,0.3,0,0.5c0.3,0.2,0.7,0.6,1,0.3c0.2-0.2,0.3-0.4,0.4-0.6c-0.3-0.2-0.2-0.1-0.3-0.5
			c-0.6,0-1.2,0-1.3,0.2c0,0-0.1,0-0.1,0C39.5,36.7,39.3,36.6,39.6,36.7L39.6,36.7z"/>
		<path fill="#FFFFFF" d="M10.4,42.2c0,0.4,0.1,0.4,0.2,0.6c0,0,0.1,0,0.1,0c0-0.2,0-0.4,0-0.6C10.6,42.2,10.5,42.2,10.4,42.2
			L10.4,42.2z"/>
		<path fill="#FFFFFF" d="M59,49.4c0.1,0.4,0,0.3,0.4,0.5c0.4,0.4,1,0.3,1.6,0.5c0.3,0.1,1.1,0.3,1.6,0.2c0.1,0,0.2-0.2,0.4-0.2
			c0,0,0.1,0.3,0.3,0.2c0.1-0.2,0.2-0.3,0.3-0.5c0.3-0.1,0.7-0.1,1-0.2c0.1-0.1,0.3-0.4,0.5-0.5c0.1,0,0.3,0,0.4,0
			c0.1-0.2,0.2-0.3,0.3-0.5c0.3-0.1,0.6-0.2,0.9-0.3c0.1-0.5,0.3-0.7,0.9-0.8c0-0.3,0-0.3,0.1-0.5c0.2-0.2,0-0.1,0.3-0.2
			c0.2-0.8,1.4-2.8,0.9-3.6c-0.1-0.4,0-0.3-0.3-0.5c0-0.1,0-0.1,0-0.2c-0.1,0-0.1,0-0.1,0c-0.1,0.3-0.1,0.6-0.1,1
			c-0.1,0.1-0.3,0.2-0.4,0.3c0,0.3,0,0.6,0,1c-0.1,0-0.1,0-0.2,0c0,0.1,0,0.2,0,0.3c-0.1,0.1-0.3,0.2-0.4,0.3c0,0.2,0,0.3,0,0.5
			c-0.2,0.2-0.4,0.3-0.6,0.5c0,0.1,0,0.2,0,0.3c-0.1,0.2-0.4,0.2-0.6,0.3c-0.1,0.2-0.3,0.4-0.4,0.6c-0.2,0.1-0.5,0.1-0.7,0.2
			c-0.1,0.2-0.2,0.3-0.3,0.5c-0.1,0-0.2,0-0.3,0c-0.1,0-0.5,0.5-0.6,0.5c-0.1,0-0.3,0-0.4,0c0,0.1,0,0.1,0,0.2c-0.2,0-0.4,0-0.6,0
			c0,0.1,0,0.1,0,0.2c-0.2,0-0.5,0-0.7,0c0,0.1,0,0.1,0,0.2c-0.5-0.1-0.9-0.1-1.3-0.2C60.2,49.5,59.6,49.5,59,49.4L59,49.4z"/>
		<path fill="#FFFFFF" d="M12.2,43c-0.2,1.2,0,2.4,0,3.3c0.1,0,0.3,0,0.4,0c0,0.1,0,0.2,0,0.3c0.2,0.1,2,2.2,2.1,2.4
			c0.8,0.1,0.4,0.3,0.7,0.5c0.1,0,0.3,0,0.4,0c0,0.1,0,0.1,0,0.2c0.2,0.1,0.4,0.1,0.6,0.2l0.3,0.3c1.1,0.1,3.1,0.4,4.3,0.2
			c0-0.1,0-0.2,0-0.3c0.5-0.1,0.5-0.1,0.9,0c-0.2-0.6,0.2-0.6-0.6-0.6c-0.6,0.5-1.7-0.2-2.4,0c0,0.1,0,0.1,0,0.2
			c-0.5-0.2-1.1-0.3-1.6-0.5c0,0-0.3-0.3-0.3-0.3c-0.2,0-0.4,0-0.6,0c0-0.1,0-0.1,0-0.2c-0.1,0-0.2,0-0.3,0
			c-0.1-0.2-0.2-0.3-0.3-0.5c-0.3-0.1-0.6-0.2-0.9-0.3c-0.2-0.1-0.2-0.5-0.3-0.6c-0.3-0.2-0.6-0.4-0.9-0.6c-0.5-0.8-1.3-2.3-1.3-3.5
			C12.4,43,12.3,43,12.2,43L12.2,43z"/>
		<path fill="#FFFFFF" d="M33.9,43c0,0.1,0,0.2,0,0.3c0.1,0,0.2,0,0.3,0c0-0.1,0-0.2,0-0.3C34.1,43,34,43,33.9,43L33.9,43z"/>
		<path fill="#FFFFFF" d="M46.3,43c0,0.1,0,0.2,0,0.3c0.1,0,0.2,0,0.3,0c0-0.1,0-0.2,0-0.3C46.5,43,46.4,43,46.3,43L46.3,43z"/>
		<path fill="#FFFFFF" d="M42.1,43.2c0,0.1,0,0.2,0,0.3c0.3-0.2,0.4-0.3,0.9-0.3c0.1,0.8,0.3,1.7,0.4,2.5c0,0,0.4,0.6,0.4,0.6
			c0,0.2,0,0.3,0,0.5c0.2,0.2,0.5,0.3,0.7,0.5c0.1,0.2-0.7,1-0.7,1.7c-0.1,0.2,0,0.9,0.1,1.3c0.1,0,0.1,0,0.1,0
			c0,0.1-0.1,0.2-0.1,0.3c0.1,0.1,0.2,0.1,0.3,0.2c0,0.2,0,0.3,0,0.5c0.2,0.4,0.6,0.4,0.7,0.9c0.3,0,0.3,0,0.4,0.2
			c0.1,0.2,0.1,0.1,0.1,0.5c-0.4,0.3-0.5,0.7-0.7,1.1c-0.1,0.1-1.2,1.2-1.3,1.3c-0.2,0-0.4,0-0.6,0c-0.2,0.2-0.3,0.4-0.4,0.6
			c-0.1,0-0.2,0-0.3,0c-0.1,0.1-0.1,0.2-0.1,0.3c-0.1-0.1-0.3-0.1-0.4-0.2c0,0.1,0,0.1,0,0.2c-0.2,0-0.4,0-0.6,0
			c-0.2,0.6-0.6,0.5-1.3,0.5c-0.4-0.3-0.9-0.2-1.3-0.5c-0.3-0.1-0.5-0.6-0.7-0.8c-0.2,0-0.4,0-0.6,0c-0.3-0.2-0.2-0.5-0.7-0.6
			c-0.3-0.9-0.9-0.6-1-1.7c-0.1-0.1-0.3-0.1-0.4-0.2c0-0.2,0-0.3,0-0.5c0.1,0,0.2,0,0.3,0c0.3-0.6,0.9-0.9,1-1.6c0.1,0,0.2,0,0.3,0
			c0-0.9,0.3-1.1,0.4-1.9c-0.5-0.4,0-0.3-0.3-0.8c-0.2-0.4-0.5-0.1-0.7-0.8c0.1,0,0.2,0,0.3,0c0.2-0.9,1-1.1,1.2-1.9
			c-0.2-0.2-0.3-0.3-0.1-0.8c0.1-0.1,0.2-0.1,0.3-0.2c-0.1-0.3-0.1-0.6-0.1-0.9c0.3-0.2,0.3-0.3,0.9-0.3c0,0,0.3,0.3,0.3,0.3
			c0.3-0.1,0.6-0.1,0.9-0.2c0-0.1,0-0.1,0-0.2c0.3-0.1,0.6,0.2,0.6,0.2c0.2,0,0.3-0.2,0.3-0.2C40.9,43.2,41.5,43.2,42.1,43.2
			L42.1,43.2z"/>
		<path fill="#FFFFFF" d="M24.7,43.6c0,0.4,0.1,0.4,0.1,0.6c0.2-0.1,0,0,0.1-0.2c0.2-0.1,0,0,0.1-0.2C25,43.9,24.8,43.8,24.7,43.6
			L24.7,43.6z"/>
		<path fill="#FFFFFF" d="M30.8,46c-0.1,1,0,1.5,0,2.5c0.1,0,0.3,0,0.4,0c-0.1-0.7,0-1.7-0.1-2.5C31,46,30.9,46,30.8,46L30.8,46z"/>
		<path fill="#FFFFFF" d="M49.6,46c-0.4,0.8-0.2,1.3-0.1,2.5c0,0,0.1,0,0.1,0c0-0.1,0-0.1,0-0.2C49.9,48,49.9,46.4,49.6,46L49.6,46z
			"/>
		<path fill="#FFFFFF" d="M24.2,46.2c0,0.6,0.2,0.9,0.6,1.1c0,0.1,0,0.1,0,0.2c0.1,0,0.1,0,0.1,0c0-0.3,0-0.5,0-0.8c0,0,0.1,0,0.1,0
			c0-0.1,0-0.1,0-0.2c0,0-0.1,0-0.1,0c0-0.1-0.1-0.2-0.1-0.3C24.6,46.2,24.4,46.2,24.2,46.2L24.2,46.2z"/>
		<path fill="#FFFFFF" d="M56.3,46.2c-0.2,0-0.4,0-0.6,0c-0.1,0.2-0.1,0.2-0.3,0.3c0.1,0.3,0,0.1,0.1,0.3c0.1,0.5,0.1,0.4,0.6,0.5
			c0-0.1,0-0.1,0-0.2c0.1,0,0.1,0,0.1,0C56.3,46.8,56.3,46.5,56.3,46.2L56.3,46.2z"/>
		<path fill="#FFFFFF" d="M24.5,48.2c0.3,0,0.3,0,0.4-0.2c0.2-0.1,0,0,0.1-0.2c-0.3-0.2-0.6-0.3-0.7-0.6c-0.2,0.1,0,0-0.1,0.2
			c-0.1,0-0.1,0-0.1,0c0.1,0.4,0.2,0.7,0.3,1.1c0.1,0,0.1,0,0.1,0C24.5,48.5,24.5,48.3,24.5,48.2L24.5,48.2z"/>
		<path fill="#FFFFFF" d="M55.6,47.8c0,0.4,0.1,0.4,0.1,0.6c0.2-0.1,0.5-0.2,0.6-0.3c0.2-0.2,0.1,0,0.1-0.3
			c-0.2-0.1-0.2-0.1-0.3-0.3C55.9,47.6,55.9,47.7,55.6,47.8L55.6,47.8z"/>
		<path fill="#FFFFFF" d="M24.4,53.6c0.1,0.2,0.1,0.3,0.1,0.5c0.2-0.1,0,0,0.1-0.2c0.2-0.2,0.1,0,0.1-0.3
			C24.7,53.6,24.5,53.6,24.4,53.6L24.4,53.6z"/>
		<path fill="#FFFFFF" d="M56.2,54.1c0-0.2,0-0.3,0-0.5c-0.2,0-0.4,0-0.6,0c0,0.1,0,0.1,0,0.2c0,0,0.1,0,0.1,0c0,0.1,0,0.1,0,0.2
			C55.9,54,56,54,56.2,54.1L56.2,54.1z"/>
		<path fill="#FFFFFF" d="M44.7,57.4c0.1,0,0.3,0,0.4,0c0-0.2,0-0.4,0-0.6c0.1,0,0.2,0,0.3,0c0.2-0.7,0.6-0.5,0.9-1
			c0.2-0.2,0.1-0.7,0.3-0.8c0.1,0,0.2,0,0.3,0c0.1-0.5,0.1-0.7,0.6-0.8c0.2,0.5,0.6,0.8,0.7,1.3c0,0.2,0,0.4,0,0.6
			c0.4,1.5-0.3,2.3-0.6,3.6c0.8,0.2,0.4,0.7,0.9,1.1c0.1,0,0.2,0,0.3,0c0.1,0.1,0.4,0.4,0.5,0.5c0,0.1,0,0.2,0,0.3
			c0.1,0.1,0.4,0.4,0.4,0.5c0.3,0.6,0.4,2.2,0.1,2.9l-0.3,0.3c0,0.2,0,0.3,0,0.5c-0.2,0.5-0.6,0.7-0.7,1.3c-0.4,0.1-0.3,0.3-0.6,0.5
			c-0.1,0-0.2,0-0.3,0c0,0.1-0.1,0.2-0.1,0.3c-0.2-0.1-0.5-0.1-0.7-0.2c-0.1,0.2-0.2,0.3-0.3,0.5c-0.3,0.1-0.4-0.2-0.4-0.2
			c-0.3,0.1-0.6,0.1-0.9,0.2c-0.7-0.1-1.6-0.6-1.9-1.1c-0.6-0.7-0.7-1.8-0.3-2.7c0.1-0.1,0.3-0.1,0.4-0.2c0-0.1,0-0.2,0-0.3
			c0.1-0.1,0.3-0.1,0.4-0.2c0.1,0.1,0.1,0.2,0.1,0.3c0.4,0.1,0.1-0.2,0.6,0c0.1,0.2,0.1,0.3,0.1,0.5c0,0-0.1,0-0.1,0
			c-0.2,0.2,0,0.1-0.3,0.2c0,0.2,0,0.4,0,0.6c0.1,0.1,0.3,0.1,0.4,0.2c0.4,0.5,0.8,0.2,1.3,0c0.1-0.5,0.6-1.2,0.3-1.6
			c-0.1-0.5-0.4-0.7-0.6-1.1c-0.6,0.1-1.2,0-1.8,0.2c-0.2,0-0.5,0-0.7,0c-1.5,0.6-2.4,2.3-2.4,4.4c0,0-0.1,0-0.1,0
			c0-0.1,0-0.1,0-0.2c-0.2-0.2-0.1,0.3-0.1,0.3c0.1,0.2,0.2,0.5,0.3,0.6c0.2,0.2,0.9,0.2,1.3,0.2c0.1-0.1,0.8-0.1,1.2-0.2
			c-0.2,0.7-0.7,1.1-1,1.6c0,0.1,0,0.2,0,0.3c-0.2,0.2-0.4,0.3-0.6,0.5c-0.1,0.2-0.1,0.4-0.1,0.6c-0.1,0.1-0.2,0.1-0.3,0.2
			c-0.3,0.5-0.4,1.1-1,1.3c0,0.4-0.1,0.4-0.1,0.6c-0.1-0.1-0.2-0.1-0.3-0.2c-0.1-0.3-0.2-0.4-0.3-0.8c-0.6-0.2-2.1-2.5-2.2-3.3
			c-0.1-0.1-0.3-0.1-0.4-0.2c0-0.4-0.1-0.4-0.2-0.6c0.5,0,1,0,1.5,0c0.1,0.1,0.8,0,1.2,0.2c-0.2-0.6-0.1-1.5-0.3-2.2
			c-0.1,0-0.1,0-0.1,0c0.1-0.2,0.1-0.3,0.1-0.5c-0.1-0.1-0.2-0.1-0.3-0.2c0.1-0.2,0.1-0.4,0.1-0.6c-0.2-0.2-0.4-0.3-0.6-0.5
			c-0.2-0.2-0.4-0.8-0.6-1c-0.6-0.2-1.2-0.4-1.8-0.6c0-0.1,0-0.1,0-0.2c-0.5,0.2-1,0.3-1.5,0.5c-0.7,0.2-0.9,0.6-0.9,1.6
			c0.2,0.2,0.2,0.3,0.3,0.6c0.5,0.1,0.7,0.3,1.5,0.3c0.2-0.4,0.4-0.3,0.4-0.9c-0.1-0.1-0.2-0.3-0.3-0.5c0,0.1,0,0.2,0,0.3
			c-0.3-0.1-0.1,0-0.3-0.2c0.2-0.2,0.1,0,0.2-0.3c0.1-0.1,0.3-0.1,0.4-0.2c0.2-0.2,0.4-0.2,0.7-0.2c0.5,0.9,0.8,1.2,0.7,2.7
			c-0.3,0.3-0.4,0.7-0.7,0.9c-0.5,0.5-2.1,0.8-3.1,0.8c-0.1-0.2-0.1-0.3-0.1-0.5c-0.5,0-0.5,0.2-0.7,0c-0.6-0.1-0.9-0.4-1-0.9
			c-0.3-0.1-0.1,0-0.3-0.2c-1.1-1-0.9-3-0.6-4.6c0.1-0.1,0.3-0.1,0.4-0.2c0.1-0.6,0.4-0.7,0.6-1.3c0.4-0.1,0.5-0.2,0.6-0.6
			c0.4,0,0.5-0.1,0.7-0.2c0-0.1,0-0.1,0-0.2c-0.1,0-0.3,0-0.4,0c0-0.2,0.1-0.3,0.1-0.5c-0.1,0-0.1,0-0.1,0c0,0.1,0,0.1,0,0.2
			c-0.2,0.2-0.1-0.3-0.1-0.3c-0.1-0.1-0.5-0.9-0.5-1.1c0,0,0.2-0.2,0.1-0.5c0,0-0.1,0-0.1,0c-0.1-0.3-0.3-0.7-0.1-1.1
			c0-0.1,0.4-0.4,0.4-0.5c0-0.2-0.1-0.3-0.1-0.5c0-0.1,0.5-0.9,0.6-1.1c0.1,0,0.2,0,0.3,0c0.1,0.2,0.3,0.3,0.4,0.5
			c0,0.1,0,0.2,0,0.3c0.1,0.1,0.3,0.2,0.5,0.3c0,0.1,0,0.2,0,0.3c0.3,0.3,0.6,0.5,0.9,0.8c0,0.1,0,0.2,0,0.3
			c0.1,0.1,0.4,0.4,0.4,0.5c0.2,0.1,0.4,0.1,0.6,0.2c0.1,0.1,0.1,0.2,0.1,0.3c0.1,0,0.2,0,0.3,0c0.1,0.2,0.2,0.3,0.3,0.5
			c0.2,0.1,0.4,0.1,0.6,0.2c0,0.1,0.1,0.2,0.1,0.3c0.6,0.3,0.7-0.2,1.3,0c0,0.1,0,0.1,0,0.2c0.1,0,0.3,0,0.4,0
			c0.1,0.1,0.1,0.2,0.1,0.3c0.2,0.1-0.1-0.1,0.1-0.2c0.3-0.1,0.4,0.1,0.6,0.2l0.3-0.3c0.6,0,1.2,0,1.8,0c0.1-0.2,0.2-0.3,0.3-0.5
			c0.3,0,0.6,0,0.9,0c0.1-0.1,0.1-0.2,0.1-0.3c0.3-0.2,0.7-0.1,0.9-0.3C44.7,57.6,44.6,57.7,44.7,57.4L44.7,57.4z"/>
		<path fill="#FFFFFF" d="M33.5,61.1c0,0.2,0,0.3,0,0.5c-0.1,0-0.3,0-0.4,0c0.1,0.4,0.2,0.4,0.3,0.8c-0.4,0.1-0.4,0.2-0.7,0
			c0,0.1,0,0.1,0,0.2c-0.1,0-0.1,0-0.2,0c0.1,0.2,0.1,0.4,0.2,0.6c0.5-0.1,1-0.1,1.5-0.2c0-1-0.2-1.1-0.3-1.9
			C33.7,61.1,33.6,61.1,33.5,61.1L33.5,61.1z"/>
		<path fill="#FFFFFF" d="M46.9,61.1c-0.1,0.5-0.3,1-0.1,1.3c0.1,0.5,0.3,0.7,0.9,0.8c0.1-0.1,0.3-0.2,0.4-0.3
			c-0.2-0.2-0.1,0-0.1-0.3c-0.1-0.1-0.3-0.1-0.4-0.2c0-0.5,0.1-0.4,0-0.6c-0.2-0.2,0-0.1-0.3-0.2c0-0.2,0-0.3,0-0.5
			C47.1,61.1,47,61.1,46.9,61.1L46.9,61.1z"/>
		<path fill="#FFFFFF" d="M40.8,70.4c0.1,0,0.2,0,0.3,0c0-0.1,0-0.1,0-0.2c0,0,0.1,0,0.1,0c0-0.2,0-0.4,0-0.6
			c-0.4,0.1-1.7,0.1-1.8,0.2c0,0-0.1,0-0.1,0c0.1,0.3,0,0.1,0.1,0.3c0.1,0.7,0.5,0.8,0.7,1.3c0,0,0.1,0,0.1,0c0-0.1,0-0.1,0-0.2
			c0.1-0.1,0.2-0.3,0.3-0.5c0.1,0.1,0.2,0.1,0.3,0.2C40.9,70.7,40.8,70.6,40.8,70.4L40.8,70.4z"/>
	</g>
</g>
<g>
	<g>
		<path fill="#3A3042" d="M118.1,19.2h-9.1v-3.6H131v3.6h-9.1v24.7h-3.8V19.2z"/>
		<path fill="#3A3042" d="M133.2,13.7h3.6v14.2h0.1c0.5-1,1.2-1.8,2.4-2.5c1.1-0.6,2.4-0.9,3.9-0.9c0.9,0,1.8,0.1,2.6,0.4
			c0.8,0.3,1.6,0.7,2.2,1.3c0.6,0.6,1.1,1.3,1.5,2.3c0.4,0.9,0.6,2,0.6,3.3v12.2h-3.6V32.7c0-0.9-0.1-1.6-0.4-2.3
			c-0.2-0.6-0.6-1.1-1-1.5c-0.4-0.4-0.9-0.7-1.4-0.8c-0.5-0.2-1.1-0.3-1.6-0.3c-0.7,0-1.4,0.1-2.1,0.4c-0.6,0.2-1.2,0.6-1.7,1.1
			c-0.5,0.5-0.9,1.2-1.1,2c-0.3,0.8-0.4,1.7-0.4,2.8v9.8h-3.6V13.7z"/>
		<path fill="#3A3042" d="M157.1,35.8c0,0.8,0.2,1.6,0.5,2.3c0.4,0.7,0.8,1.3,1.4,1.7c0.6,0.5,1.3,0.9,2,1.1
			c0.8,0.3,1.6,0.4,2.4,0.4c1.1,0,2.1-0.3,2.9-0.8c0.8-0.5,1.6-1.2,2.3-2.1l2.7,2.1c-2,2.6-4.8,3.9-8.4,3.9c-1.5,0-2.8-0.3-4.1-0.8
			c-1.2-0.5-2.2-1.2-3.1-2.1s-1.5-1.9-1.9-3.2c-0.5-1.2-0.7-2.5-0.7-3.9c0-1.4,0.2-2.7,0.7-3.9c0.5-1.2,1.2-2.3,2-3.2
			c0.9-0.9,1.9-1.6,3.1-2.1c1.2-0.5,2.5-0.8,3.9-0.8c1.7,0,3.1,0.3,4.3,0.9s2.1,1.4,2.9,2.3c0.7,0.9,1.3,2,1.6,3.2
			c0.3,1.2,0.5,2.4,0.5,3.6v1.3H157.1z M168.5,32.9c0-0.8-0.2-1.5-0.4-2.2c-0.2-0.7-0.6-1.2-1-1.7c-0.5-0.5-1-0.9-1.7-1.2
			c-0.7-0.3-1.5-0.4-2.4-0.4c-0.9,0-1.7,0.2-2.4,0.5c-0.7,0.3-1.4,0.8-1.9,1.3c-0.5,0.5-0.9,1.1-1.2,1.8c-0.3,0.7-0.4,1.3-0.4,1.9
			H168.5z"/>
		<path fill="#3A3042" d="M195.6,15.6h3.5l12.1,28.3h-4.5l-2.8-7h-13.5l-2.8,7h-4.5L195.6,15.6z M202.5,33.6l-5.3-13h-0.1l-5.4,13
			H202.5z"/>
		<path fill="#3A3042" d="M212.9,25h3.6v2.9h0.1c0.5-1,1.2-1.8,2.4-2.5c1.1-0.6,2.4-0.9,3.9-0.9c0.9,0,1.8,0.1,2.6,0.4
			c0.8,0.3,1.6,0.7,2.2,1.3c0.6,0.6,1.1,1.3,1.5,2.3c0.4,0.9,0.6,2,0.6,3.3v12.2h-3.6V32.7c0-0.9-0.1-1.6-0.4-2.3
			c-0.2-0.6-0.6-1.1-1-1.5c-0.4-0.4-0.9-0.7-1.4-0.8c-0.5-0.2-1.1-0.3-1.6-0.3c-0.7,0-1.4,0.1-2.1,0.4c-0.6,0.2-1.2,0.6-1.7,1.1
			c-0.5,0.5-0.9,1.2-1.1,2c-0.3,0.8-0.4,1.7-0.4,2.8v9.8h-3.6V25z"/>
		<path fill="#3A3042" d="M253.2,43.9h-3.6v-2.7h-0.1c-0.7,1-1.6,1.8-2.9,2.4c-1.2,0.6-2.5,0.8-3.7,0.8c-1.5,0-2.8-0.3-4-0.8
			c-1.2-0.5-2.2-1.2-3-2.1c-0.8-0.9-1.5-2-1.9-3.2c-0.5-1.2-0.7-2.5-0.7-3.9c0-1.4,0.2-2.7,0.7-3.9c0.5-1.2,1.1-2.3,1.9-3.2
			c0.8-0.9,1.9-1.6,3-2.1s2.5-0.8,4-0.8c1.4,0,2.6,0.3,3.8,0.9c1.2,0.6,2.1,1.4,2.8,2.3h0.1v-14h3.6V43.9z M243.3,41.1
			c1,0,1.8-0.2,2.6-0.5c0.8-0.3,1.4-0.8,2-1.4c0.5-0.6,0.9-1.3,1.2-2.1c0.3-0.8,0.4-1.7,0.4-2.7c0-1-0.1-1.8-0.4-2.7
			c-0.3-0.8-0.7-1.5-1.2-2.1c-0.5-0.6-1.2-1-2-1.4c-0.8-0.3-1.6-0.5-2.6-0.5s-1.8,0.2-2.6,0.5c-0.8,0.3-1.4,0.8-2,1.4
			c-0.5,0.6-0.9,1.3-1.2,2.1c-0.3,0.8-0.4,1.7-0.4,2.7c0,1,0.1,1.8,0.4,2.7c0.3,0.8,0.7,1.5,1.2,2.1c0.5,0.6,1.2,1,2,1.4
			C241.5,40.9,242.4,41.1,243.3,41.1z"/>
		<path fill="#3A3042" d="M260.3,35.8c0,0.8,0.2,1.6,0.5,2.3c0.4,0.7,0.8,1.3,1.4,1.7c0.6,0.5,1.3,0.9,2,1.1
			c0.8,0.3,1.6,0.4,2.4,0.4c1.1,0,2.1-0.3,2.9-0.8c0.8-0.5,1.6-1.2,2.3-2.1l2.7,2.1c-2,2.6-4.8,3.9-8.4,3.9c-1.5,0-2.8-0.3-4.1-0.8
			c-1.2-0.5-2.2-1.2-3.1-2.1s-1.5-1.9-1.9-3.2c-0.5-1.2-0.7-2.5-0.7-3.9c0-1.4,0.2-2.7,0.7-3.9c0.5-1.2,1.2-2.3,2-3.2
			c0.9-0.9,1.9-1.6,3.1-2.1c1.2-0.5,2.5-0.8,3.9-0.8c1.7,0,3.1,0.3,4.3,0.9s2.1,1.4,2.9,2.3c0.7,0.9,1.3,2,1.6,3.2
			c0.3,1.2,0.5,2.4,0.5,3.6v1.3H260.3z M271.7,32.9c0-0.8-0.2-1.5-0.4-2.2c-0.2-0.7-0.6-1.2-1-1.7c-0.5-0.5-1-0.9-1.7-1.2
			c-0.7-0.3-1.5-0.4-2.4-0.4c-0.9,0-1.7,0.2-2.4,0.5c-0.7,0.3-1.4,0.8-1.9,1.3c-0.5,0.5-0.9,1.1-1.2,1.8c-0.3,0.7-0.4,1.3-0.4,1.9
			H271.7z"/>
		<path fill="#3A3042" d="M278.9,25h3.6v2.9h0.1c0.2-0.5,0.6-1,1-1.4c0.4-0.4,0.8-0.8,1.3-1.1c0.5-0.3,1-0.5,1.6-0.7
			c0.6-0.2,1.2-0.3,1.8-0.3c0.6,0,1.1,0.1,1.6,0.2l-0.2,3.9c-0.3-0.1-0.6-0.1-0.9-0.2c-0.3-0.1-0.6-0.1-0.9-0.1
			c-1.8,0-3.1,0.5-4,1.5c-0.9,1-1.4,2.5-1.4,4.6v9.5h-3.6V25z"/>
		<path fill="#3A3042" d="M302.7,29.7c-0.4-0.5-1-1-1.6-1.3s-1.4-0.5-2.3-0.5c-0.9,0-1.6,0.2-2.2,0.5c-0.6,0.4-0.9,0.9-0.9,1.6
			c0,0.6,0.2,1,0.5,1.4c0.4,0.3,0.8,0.6,1.3,0.8c0.5,0.2,1,0.4,1.6,0.5c0.6,0.1,1,0.2,1.4,0.3c0.8,0.2,1.5,0.4,2.2,0.7
			c0.7,0.3,1.3,0.6,1.8,1c0.5,0.4,0.9,0.9,1.2,1.6s0.4,1.4,0.4,2.2c0,1.1-0.2,2-0.7,2.7c-0.5,0.8-1,1.4-1.8,1.9
			c-0.7,0.5-1.5,0.8-2.5,1s-1.8,0.3-2.8,0.3c-1.6,0-3-0.2-4.1-0.7c-1.2-0.5-2.2-1.4-3.2-2.6l2.7-2.2c0.6,0.6,1.2,1.1,2,1.6
			s1.6,0.7,2.6,0.7c0.5,0,0.9,0,1.4-0.1c0.5-0.1,0.9-0.2,1.2-0.4c0.4-0.2,0.7-0.5,0.9-0.8c0.2-0.3,0.3-0.7,0.3-1.1
			c0-0.5-0.2-1-0.5-1.3c-0.3-0.3-0.7-0.6-1.2-0.8c-0.5-0.2-1-0.4-1.5-0.5c-0.5-0.1-1-0.2-1.4-0.3c-0.8-0.2-1.5-0.4-2.2-0.6
			s-1.3-0.6-1.8-1c-0.5-0.4-1-0.9-1.3-1.5c-0.3-0.6-0.5-1.4-0.5-2.3c0-1,0.2-1.8,0.6-2.6c0.4-0.7,1-1.3,1.6-1.8
			c0.7-0.5,1.5-0.8,2.3-1.1c0.9-0.2,1.7-0.4,2.6-0.4c1.3,0,2.5,0.2,3.7,0.7c1.2,0.5,2.1,1.3,2.8,2.4L302.7,29.7z"/>
		<path fill="#3A3042" d="M308.5,34.5c0-1.4,0.3-2.7,0.8-3.9c0.5-1.2,1.2-2.3,2.1-3.2s2-1.6,3.2-2.1s2.5-0.8,4-0.8
			c1.4,0,2.7,0.3,4,0.8s2.3,1.2,3.2,2.1c0.9,0.9,1.6,2,2.1,3.2c0.5,1.2,0.8,2.5,0.8,3.9c0,1.4-0.3,2.7-0.8,3.9
			c-0.5,1.2-1.2,2.3-2.1,3.2c-0.9,0.9-2,1.6-3.2,2.1c-1.2,0.5-2.5,0.8-4,0.8c-1.4,0-2.7-0.3-4-0.8c-1.2-0.5-2.3-1.2-3.2-2.1
			s-1.6-1.9-2.1-3.2C308.8,37.1,308.5,35.8,308.5,34.5z M312.3,34.5c0,1,0.1,1.8,0.4,2.7c0.3,0.8,0.7,1.5,1.2,2.1
			c0.5,0.6,1.2,1,2,1.4c0.8,0.3,1.6,0.5,2.6,0.5s1.8-0.2,2.6-0.5c0.8-0.3,1.4-0.8,2-1.4c0.5-0.6,0.9-1.3,1.2-2.1
			c0.3-0.8,0.4-1.7,0.4-2.7c0-1-0.1-1.8-0.4-2.7c-0.3-0.8-0.7-1.5-1.2-2.1c-0.5-0.6-1.2-1-2-1.4c-0.8-0.3-1.6-0.5-2.6-0.5
			s-1.8,0.2-2.6,0.5c-0.8,0.3-1.4,0.8-2,1.4c-0.5,0.6-0.9,1.3-1.2,2.1C312.5,32.6,312.3,33.5,312.3,34.5z"/>
		<path fill="#3A3042" d="M332.2,25h3.6v2.9h0.1c0.5-1,1.2-1.8,2.4-2.5c1.1-0.6,2.4-0.9,3.9-0.9c0.9,0,1.8,0.1,2.6,0.4
			c0.8,0.3,1.6,0.7,2.2,1.3c0.6,0.6,1.1,1.3,1.5,2.3c0.4,0.9,0.6,2,0.6,3.3v12.2h-3.6V32.7c0-0.9-0.1-1.6-0.4-2.3
			c-0.2-0.6-0.6-1.1-1-1.5c-0.4-0.4-0.9-0.7-1.4-0.8c-0.5-0.2-1.1-0.3-1.6-0.3c-0.7,0-1.4,0.1-2.1,0.4c-0.6,0.2-1.2,0.6-1.7,1.1
			c-0.5,0.5-0.9,1.2-1.1,2c-0.3,0.8-0.4,1.7-0.4,2.8v9.8h-3.6V25z"/>
		<path fill="#3A3042" d="M388.6,28.1v14c-0.7,0.4-1.5,0.8-2.4,1.1c-0.9,0.3-1.8,0.6-2.7,0.8c-0.9,0.2-1.9,0.4-2.9,0.5
			c-1,0.1-1.9,0.2-2.7,0.2c-2.4,0-4.5-0.4-6.4-1.2c-1.9-0.8-3.5-1.9-4.8-3.2c-1.3-1.4-2.3-2.9-3-4.7c-0.7-1.8-1-3.7-1-5.7
			c0-2.1,0.4-4.1,1.1-5.9c0.7-1.8,1.7-3.4,3-4.7c1.3-1.3,2.8-2.4,4.7-3.1c1.8-0.8,3.8-1.1,6-1.1c2.6,0,4.7,0.3,6.4,1
			c1.7,0.7,3,1.6,4.2,2.7l-2.7,2.9c-1.2-1.1-2.4-1.9-3.7-2.3s-2.7-0.7-4.1-0.7c-1.6,0-3.1,0.3-4.4,0.9c-1.3,0.6-2.4,1.4-3.4,2.4
			s-1.7,2.2-2.2,3.6c-0.5,1.4-0.8,2.8-0.8,4.4c0,1.6,0.3,3.1,0.8,4.5c0.6,1.4,1.3,2.6,2.3,3.6c1,1,2.1,1.8,3.5,2.4
			c1.3,0.6,2.8,0.9,4.4,0.9c1.4,0,2.6-0.1,3.9-0.4c1.2-0.3,2.2-0.6,3.1-1.1v-7.9h-6.3v-3.6H388.6z"/>
		<path fill="#3A3042" d="M393.7,25h3.6v2.9h0.1c0.2-0.5,0.6-1,1-1.4c0.4-0.4,0.8-0.8,1.3-1.1c0.5-0.3,1-0.5,1.6-0.7
			c0.6-0.2,1.2-0.3,1.8-0.3c0.6,0,1.1,0.1,1.6,0.2l-0.2,3.9c-0.3-0.1-0.6-0.1-0.9-0.2c-0.3-0.1-0.6-0.1-0.9-0.1
			c-1.8,0-3.1,0.5-4,1.5c-0.9,1-1.4,2.5-1.4,4.6v9.5h-3.6V25z"/>
		<path fill="#3A3042" d="M405.8,34.5c0-1.4,0.3-2.7,0.8-3.9c0.5-1.2,1.2-2.3,2.1-3.2s2-1.6,3.2-2.1s2.5-0.8,4-0.8
			c1.4,0,2.7,0.3,4,0.8s2.3,1.2,3.2,2.1c0.9,0.9,1.6,2,2.1,3.2c0.5,1.2,0.8,2.5,0.8,3.9c0,1.4-0.3,2.7-0.8,3.9
			c-0.5,1.2-1.2,2.3-2.1,3.2c-0.9,0.9-2,1.6-3.2,2.1c-1.2,0.5-2.5,0.8-4,0.8c-1.4,0-2.7-0.3-4-0.8c-1.2-0.5-2.3-1.2-3.2-2.1
			s-1.6-1.9-2.1-3.2C406.1,37.1,405.8,35.8,405.8,34.5z M409.7,34.5c0,1,0.1,1.8,0.4,2.7c0.3,0.8,0.7,1.5,1.2,2.1
			c0.5,0.6,1.2,1,2,1.4c0.8,0.3,1.6,0.5,2.6,0.5s1.8-0.2,2.6-0.5c0.8-0.3,1.4-0.8,2-1.4c0.5-0.6,0.9-1.3,1.2-2.1
			c0.3-0.8,0.4-1.7,0.4-2.7c0-1-0.1-1.8-0.4-2.7c-0.3-0.8-0.7-1.5-1.2-2.1c-0.5-0.6-1.2-1-2-1.4c-0.8-0.3-1.6-0.5-2.6-0.5
			s-1.8,0.2-2.6,0.5c-0.8,0.3-1.4,0.8-2,1.4c-0.5,0.6-0.9,1.3-1.2,2.1C409.8,32.6,409.7,33.5,409.7,34.5z"/>
		<path fill="#3A3042" d="M446.3,43.9h-3.6V41h-0.1c-0.5,1-1.2,1.8-2.4,2.5c-1.1,0.6-2.4,0.9-3.9,0.9c-0.9,0-1.8-0.1-2.6-0.4
			c-0.8-0.3-1.6-0.7-2.2-1.3c-0.6-0.6-1.1-1.3-1.5-2.3c-0.4-0.9-0.6-2-0.6-3.3V25h3.6v11.2c0,0.9,0.1,1.6,0.4,2.3
			c0.2,0.6,0.6,1.1,1,1.5c0.4,0.4,0.9,0.7,1.4,0.8c0.5,0.2,1.1,0.3,1.6,0.3c0.7,0,1.4-0.1,2.1-0.4c0.6-0.2,1.2-0.6,1.7-1.1
			c0.5-0.5,0.9-1.2,1.1-2c0.3-0.8,0.4-1.7,0.4-2.8V25h3.6V43.9z"/>
		<path fill="#3A3042" d="M450.7,25h3.6v2.7h0.1c0.7-1,1.6-1.8,2.9-2.4c1.2-0.6,2.5-0.8,3.7-0.8c1.5,0,2.8,0.3,4,0.8
			c1.2,0.5,2.2,1.2,3,2.1c0.8,0.9,1.5,2,1.9,3.2c0.5,1.2,0.7,2.5,0.7,3.9c0,1.4-0.2,2.7-0.7,3.9c-0.5,1.2-1.1,2.3-1.9,3.2
			c-0.8,0.9-1.9,1.6-3,2.1c-1.2,0.5-2.5,0.8-4,0.8c-1.4,0-2.6-0.3-3.8-0.9s-2.1-1.4-2.8-2.3h-0.1v14h-3.6V25z M460.6,27.9
			c-1,0-1.8,0.2-2.6,0.5c-0.8,0.3-1.4,0.8-2,1.4c-0.5,0.6-0.9,1.3-1.2,2.1c-0.3,0.8-0.4,1.7-0.4,2.7c0,1,0.1,1.8,0.4,2.7
			c0.3,0.8,0.7,1.5,1.2,2.1c0.5,0.6,1.2,1,2,1.4c0.8,0.3,1.6,0.5,2.6,0.5s1.8-0.2,2.6-0.5c0.8-0.3,1.4-0.8,2-1.4
			c0.5-0.6,0.9-1.3,1.2-2.1c0.3-0.8,0.4-1.7,0.4-2.7c0-1-0.1-1.8-0.4-2.7c-0.3-0.8-0.7-1.5-1.2-2.1c-0.5-0.6-1.2-1-2-1.4
			C462.4,28,461.5,27.9,460.6,27.9z"/>
	</g>
</g>
<g>
	<g>
		<path fill="#757780" d="M113.7,56.4c0-0.2,0.1-0.3,0.3-0.3h4.9c2.2,0,3.9,1.7,3.9,3.9c0,1.7-1.1,3-2.7,3.7l2.5,4.6
			c0.1,0.2,0,0.5-0.3,0.5H121c-0.1,0-0.3-0.1-0.3-0.2l-2.4-4.8h-2.7v4.6c0,0.2-0.2,0.3-0.3,0.3h-1.2c-0.2,0-0.3-0.2-0.3-0.3V56.4z
			 M118.8,62.2c1.2,0,2.2-1,2.2-2.2c0-1.2-1-2.1-2.2-2.1h-3.2v4.4H118.8z"/>
		<path fill="#757780" d="M127.5,56.4c0-0.2,0.1-0.3,0.3-0.3h7.2c0.2,0,0.3,0.2,0.3,0.3v1c0,0.2-0.1,0.3-0.3,0.3h-5.7v3.7h4.8
			c0.2,0,0.3,0.2,0.3,0.3v1c0,0.2-0.2,0.3-0.3,0.3h-4.8V67h5.7c0.2,0,0.3,0.2,0.3,0.3v1c0,0.2-0.1,0.3-0.3,0.3h-7.2
			c-0.2,0-0.3-0.2-0.3-0.3V56.4z"/>
		<path fill="#757780" d="M138.2,68.2l5.5-12.1c0.1-0.1,0.2-0.2,0.3-0.2h0.2c0.1,0,0.3,0.1,0.3,0.2l5.5,12.1c0.1,0.2,0,0.5-0.3,0.5
			h-1.1c-0.2,0-0.3-0.1-0.4-0.3L147,66h-5.9c-0.4,0.8-0.7,1.6-1.1,2.5c-0.1,0.1-0.2,0.3-0.4,0.3h-1.1
			C138.2,68.7,138.1,68.5,138.2,68.2z M146.4,64.4l-2.2-4.9h-0.1l-2.2,4.9H146.4z"/>
		<path fill="#757780" d="M153.6,56.4c0-0.2,0.1-0.3,0.3-0.3h1.2c0.2,0,0.3,0.2,0.3,0.3V67h4.9c0.2,0,0.3,0.2,0.3,0.3v1
			c0,0.2-0.1,0.3-0.3,0.3H154c-0.2,0-0.3-0.2-0.3-0.3V56.4z"/>
		<path fill="#757780" d="M170.2,56.4c0-0.2,0.1-0.3,0.3-0.3h7.2c0.2,0,0.3,0.2,0.3,0.3v1c0,0.2-0.1,0.3-0.3,0.3H172v3.7h4.8
			c0.2,0,0.3,0.2,0.3,0.3v1c0,0.2-0.2,0.3-0.3,0.3H172V67h5.7c0.2,0,0.3,0.2,0.3,0.3v1c0,0.2-0.1,0.3-0.3,0.3h-7.2
			c-0.2,0-0.3-0.2-0.3-0.3V56.4z"/>
		<path fill="#757780" d="M181.7,66.9c0.2-0.2,0.3-0.5,0.5-0.7s0.4-0.3,0.6-0.1c0.1,0.1,1.5,1.2,2.9,1.2c1.2,0,2-0.8,2-1.7
			c0-1.1-0.9-1.8-2.7-2.5c-1.8-0.8-3.3-1.7-3.3-3.8c0-1.4,1.1-3.3,3.9-3.3c1.8,0,3.2,0.9,3.3,1.1c0.1,0.1,0.3,0.3,0.1,0.6
			c-0.1,0.2-0.3,0.5-0.5,0.7c-0.1,0.2-0.4,0.3-0.6,0.2c-0.1-0.1-1.4-0.9-2.4-0.9c-1.5,0-2,1-2,1.6c0,1,0.8,1.7,2.3,2.3
			c2.1,0.8,3.9,1.8,3.9,4c0,1.9-1.7,3.4-4,3.4c-2.2,0-3.6-1.2-3.9-1.4C181.7,67.3,181.6,67.2,181.7,66.9z"/>
		<path fill="#757780" d="M195.8,57.8h-2.9c-0.2,0-0.3-0.2-0.3-0.3v-1c0-0.2,0.1-0.3,0.3-0.3h7.7c0.2,0,0.3,0.2,0.3,0.3v1
			c0,0.2-0.1,0.3-0.3,0.3h-2.9v10.6c0,0.2-0.2,0.3-0.3,0.3h-1.2c-0.2,0-0.3-0.2-0.3-0.3V57.8z"/>
		<path fill="#757780" d="M202.3,68.2l5.5-12.1c0.1-0.1,0.2-0.2,0.3-0.2h0.2c0.1,0,0.3,0.1,0.3,0.2l5.5,12.1c0.1,0.2,0,0.5-0.3,0.5
			h-1.1c-0.2,0-0.3-0.1-0.4-0.3l-1.1-2.5h-5.9c-0.4,0.8-0.7,1.6-1.1,2.5c-0.1,0.1-0.2,0.3-0.4,0.3h-1.1
			C202.3,68.7,202.2,68.5,202.3,68.2z M210.4,64.4l-2.2-4.9h-0.1l-2.2,4.9H210.4z"/>
		<path fill="#757780" d="M218.7,57.8h-2.9c-0.2,0-0.3-0.2-0.3-0.3v-1c0-0.2,0.1-0.3,0.3-0.3h7.7c0.2,0,0.3,0.2,0.3,0.3v1
			c0,0.2-0.1,0.3-0.3,0.3h-2.9v10.6c0,0.2-0.2,0.3-0.3,0.3h-1.2c-0.2,0-0.3-0.2-0.3-0.3V57.8z"/>
		<path fill="#757780" d="M227.6,56.4c0-0.2,0.1-0.3,0.3-0.3h7.2c0.2,0,0.3,0.2,0.3,0.3v1c0,0.2-0.1,0.3-0.3,0.3h-5.7v3.7h4.8
			c0.2,0,0.3,0.2,0.3,0.3v1c0,0.2-0.2,0.3-0.3,0.3h-4.8V67h5.7c0.2,0,0.3,0.2,0.3,0.3v1c0,0.2-0.1,0.3-0.3,0.3H228
			c-0.2,0-0.3-0.2-0.3-0.3V56.4z"/>
		<path fill="#757780" d="M245,66.9c0.2-0.2,0.3-0.5,0.5-0.7s0.4-0.3,0.6-0.1c0.1,0.1,1.5,1.2,2.9,1.2c1.2,0,2-0.8,2-1.7
			c0-1.1-0.9-1.8-2.7-2.5c-1.8-0.8-3.3-1.7-3.3-3.8c0-1.4,1.1-3.3,3.9-3.3c1.8,0,3.2,0.9,3.3,1.1c0.1,0.1,0.3,0.3,0.1,0.6
			c-0.1,0.2-0.3,0.5-0.5,0.7c-0.1,0.2-0.4,0.3-0.6,0.2c-0.1-0.1-1.4-0.9-2.4-0.9c-1.5,0-2,1-2,1.6c0,1,0.8,1.7,2.3,2.3
			c2.1,0.8,3.9,1.8,3.9,4c0,1.9-1.7,3.4-4,3.4c-2.2,0-3.6-1.2-3.9-1.4C244.9,67.3,244.8,67.2,245,66.9z"/>
		<path fill="#757780" d="M257.3,56.4c0-0.2,0.1-0.3,0.3-0.3h7.2c0.2,0,0.3,0.2,0.3,0.3v1c0,0.2-0.1,0.3-0.3,0.3h-5.7v3.7h4.8
			c0.2,0,0.3,0.2,0.3,0.3v1c0,0.2-0.2,0.3-0.3,0.3h-4.8V67h5.7c0.2,0,0.3,0.2,0.3,0.3v1c0,0.2-0.1,0.3-0.3,0.3h-7.2
			c-0.2,0-0.3-0.2-0.3-0.3V56.4z"/>
		<path fill="#757780" d="M269.7,56.4c0-0.2,0.1-0.3,0.3-0.3h4.9c2.2,0,3.9,1.7,3.9,3.9c0,1.7-1.1,3-2.7,3.7l2.5,4.6
			c0.1,0.2,0,0.5-0.3,0.5h-1.4c-0.1,0-0.3-0.1-0.3-0.2l-2.4-4.8h-2.7v4.6c0,0.2-0.2,0.3-0.3,0.3H270c-0.2,0-0.3-0.2-0.3-0.3V56.4z
			 M274.8,62.2c1.2,0,2.2-1,2.2-2.2c0-1.2-1-2.1-2.2-2.1h-3.2v4.4H274.8z"/>
		<path fill="#757780" d="M281.8,56.6c-0.1-0.2,0-0.5,0.3-0.5h1.3c0.1,0,0.3,0.1,0.3,0.2l4,8.9h0.1l4-8.9c0-0.1,0.1-0.2,0.3-0.2h1.3
			c0.3,0,0.4,0.2,0.3,0.5L288,68.7c-0.1,0.1-0.2,0.2-0.3,0.2h-0.2c-0.1,0-0.3-0.1-0.3-0.2L281.8,56.6z"/>
		<path fill="#757780" d="M297.2,56.4c0-0.2,0.2-0.3,0.3-0.3h1.2c0.2,0,0.3,0.2,0.3,0.3v11.9c0,0.2-0.2,0.3-0.3,0.3h-1.2
			c-0.2,0-0.3-0.2-0.3-0.3V56.4z"/>
		<path fill="#757780" d="M309.9,55.9c1.8,0,3.1,0.6,4.4,1.7c0.2,0.1,0.2,0.4,0,0.5l-0.8,0.8c-0.1,0.2-0.3,0.2-0.5,0
			c-0.8-0.7-2-1.2-3.1-1.2c-2.6,0-4.5,2.2-4.5,4.7c0,2.5,2,4.7,4.5,4.7c1.3,0,2.2-0.5,3.1-1.2c0.2-0.1,0.3-0.1,0.4,0l0.8,0.8
			c0.1,0.1,0.1,0.4,0,0.5c-1.2,1.2-2.8,1.7-4.4,1.7c-3.6,0-6.5-2.9-6.5-6.5C303.4,58.8,306.3,55.9,309.9,55.9z"/>
		<path fill="#757780" d="M318.7,56.4c0-0.2,0.1-0.3,0.3-0.3h7.2c0.2,0,0.3,0.2,0.3,0.3v1c0,0.2-0.1,0.3-0.3,0.3h-5.7v3.7h4.8
			c0.2,0,0.3,0.2,0.3,0.3v1c0,0.2-0.2,0.3-0.3,0.3h-4.8V67h5.7c0.2,0,0.3,0.2,0.3,0.3v1c0,0.2-0.1,0.3-0.3,0.3H319
			c-0.2,0-0.3-0.2-0.3-0.3V56.4z"/>
		<path fill="#757780" d="M330.3,66.9c0.2-0.2,0.3-0.5,0.5-0.7s0.4-0.3,0.6-0.1c0.1,0.1,1.5,1.2,2.9,1.2c1.2,0,2-0.8,2-1.7
			c0-1.1-0.9-1.8-2.7-2.5c-1.8-0.8-3.3-1.7-3.3-3.8c0-1.4,1.1-3.3,3.9-3.3c1.8,0,3.2,0.9,3.3,1.1c0.1,0.1,0.3,0.3,0.1,0.6
			c-0.1,0.2-0.3,0.5-0.5,0.7c-0.1,0.2-0.4,0.3-0.6,0.2c-0.1-0.1-1.4-0.9-2.4-0.9c-1.5,0-2,1-2,1.6c0,1,0.8,1.7,2.3,2.3
			c2.1,0.8,3.9,1.8,3.9,4c0,1.9-1.7,3.4-4,3.4c-2.2,0-3.6-1.2-3.9-1.4C330.2,67.3,330.1,67.2,330.3,66.9z"/>
	</g>
</g>
</svg>
